<svg id="img_mv_copy.svg" xmlns="http://www.w3.org/2000/svg" width="759.716" height="456.82" viewBox="0 0 759.716 456.82">
  <defs>
    <style>
      .cls-1 {
        fill: #fff;
        fill-rule: evenodd;
      }
    </style>
  </defs>
  <path id="SHARE_TIME_SHARE_WORK_HACOBEE_" data-name="SHARE TIME, SHARE WORK, HACOBEE " class="cls-1" d="M804.8,1112.54c18.81,0,29.92-11.33,29.92-24.64,0-11.77-6.49-18.04-16.39-22.11l-10.67-4.51c-6.93-2.75-12.761-4.84-12.761-10.67,0-5.39,4.621-8.58,11.771-8.58,6.71,0,12.1,2.42,17.27,6.71l8.25-10.23a36.124,36.124,0,0,0-25.52-10.45c-16.5,0-28.161,10.23-28.161,23.54,0,11.88,8.25,18.48,16.5,21.89l10.891,4.62c7.26,3.08,12.21,4.95,12.21,11,0,5.72-4.51,9.35-12.981,9.35-7.15,0-14.849-3.63-20.68-9.02l-9.35,11.22A43.377,43.377,0,0,0,804.8,1112.54Zm44.293-1.54h16.28v-35.2h30.8V1111h16.17v-81.4h-16.17v32.01h-30.8V1029.6h-16.28V1111Zm99.511-33.55,2.421-8.91c2.42-8.47,4.839-17.71,6.929-26.62H958.4c2.42,8.8,4.619,18.15,7.15,26.62l2.42,8.91H948.605Zm28.6,33.55h17.05l-26.18-81.4H948.935l-26.07,81.4h16.5l5.721-20.9h26.4Zm44.544-68.53h10.56c10.45,0,16.17,2.97,16.17,11.77,0,8.69-5.72,13.09-16.17,13.09h-10.56v-24.86Zm46.2,68.53-19.03-33.33c9.35-3.63,15.51-11.22,15.51-23.43,0-18.7-13.53-24.64-30.58-24.64h-28.38V1111h16.28v-30.8h11.33l16.72,30.8h18.15Zm12.34,0h51.15v-13.64h-34.87v-21.78h28.6v-13.64h-28.6v-18.81h33.66V1029.6h-49.94V1111Zm113.57,0h16.28v-67.87h23.1V1029.6h-62.26v13.53h22.88V1111Zm51.99,0h16.28v-81.4h-16.28V1111Zm35.01,0h14.63v-33.99c0-7.7-1.32-19.03-2.09-26.73h0.44l6.49,19.14,12.65,34.21h9.35l12.54-34.21,6.6-19.14h0.44c-0.77,7.7-1.98,19.03-1.98,26.73V1111h14.85v-81.4h-18.04l-13.53,38.06c-1.76,5.06-3.19,10.45-4.95,15.73h-0.55c-1.65-5.28-3.19-10.67-4.95-15.73l-13.86-38.06h-18.04V1111Zm93.25,0h51.15v-13.64h-34.87v-21.78h28.6v-13.64h-28.6v-18.81h33.66V1029.6h-49.94V1111Zm68.18,23.43c13.2-4.4,20.79-14.19,20.79-27.06,0-10.01-4.18-15.95-11.66-15.95-5.72,0-10.45,3.74-10.45,9.57,0,6.16,4.84,9.57,10.12,9.57h0.99c0,6.38-4.73,11.88-13.2,15.07ZM804.8,1242.54c18.81,0,29.92-11.33,29.92-24.64,0-11.77-6.49-18.04-16.39-22.11l-10.67-4.51c-6.93-2.75-12.761-4.84-12.761-10.67,0-5.39,4.621-8.58,11.771-8.58,6.71,0,12.1,2.42,17.27,6.71l8.25-10.23a36.124,36.124,0,0,0-25.52-10.45c-16.5,0-28.161,10.23-28.161,23.54,0,11.88,8.25,18.48,16.5,21.89l10.891,4.62c7.26,3.08,12.21,4.95,12.21,11,0,5.72-4.51,9.35-12.981,9.35-7.15,0-14.849-3.63-20.68-9.02l-9.35,11.22A43.377,43.377,0,0,0,804.8,1242.54Zm44.293-1.54h16.28v-35.2h30.8V1241h16.17v-81.4h-16.17v32.01h-30.8V1159.6h-16.28V1241Zm99.511-33.55,2.421-8.91c2.42-8.47,4.839-17.71,6.929-26.62H958.4c2.42,8.8,4.619,18.15,7.15,26.62l2.42,8.91H948.605Zm28.6,33.55h17.05l-26.18-81.4H948.935l-26.07,81.4h16.5l5.721-20.9h26.4Zm44.544-68.53h10.56c10.45,0,16.17,2.97,16.17,11.77,0,8.69-5.72,13.09-16.17,13.09h-10.56v-24.86Zm46.2,68.53-19.03-33.33c9.35-3.63,15.51-11.22,15.51-23.43,0-18.7-13.53-24.64-30.58-24.64h-28.38V1241h16.28v-30.8h11.33l16.72,30.8h18.15Zm12.34,0h51.15v-13.64h-34.87v-21.78h28.6v-13.64h-28.6v-18.81h33.66V1159.6h-49.94V1241Zm105.1,0h19.91l8.91-40.26c1.32-6.38,2.42-12.65,3.52-18.81h0.44c0.99,6.16,2.2,12.43,3.52,18.81l9.13,40.26h20.24l15.07-81.4h-15.51l-6.38,39.71c-1.21,8.47-2.42,17.16-3.63,25.96h-0.55c-1.76-8.8-3.41-17.6-5.17-25.96l-9.46-39.71h-13.86l-9.46,39.71c-1.76,8.47-3.52,17.27-5.17,25.96h-0.44c-1.21-8.69-2.53-17.38-3.74-25.96l-6.49-39.71h-16.61Zm124.9,1.54c21.56,0,36.41-16.17,36.41-42.57s-14.85-41.91-36.41-41.91-36.41,15.4-36.41,41.91C1273.88,1226.37,1288.73,1242.54,1310.29,1242.54Zm0-14.08c-12.1,0-19.8-11.11-19.8-28.49,0-17.49,7.7-27.94,19.8-27.94s19.8,10.45,19.8,27.94C1330.09,1217.35,1322.39,1228.46,1310.29,1228.46Zm68.47-55.99h10.56c10.45,0,16.17,2.97,16.17,11.77,0,8.69-5.72,13.09-16.17,13.09h-10.56v-24.86Zm46.2,68.53-19.03-33.33c9.35-3.63,15.51-11.22,15.51-23.43,0-18.7-13.53-24.64-30.58-24.64h-28.38V1241h16.28v-30.8h11.33l16.72,30.8h18.15Zm12.35,0h16.28v-22.88l10.67-13.64,21.01,36.52h17.93l-29.26-49.39,24.86-32.01h-17.93l-26.95,35.31h-0.33V1159.6h-16.28V1241Zm76.71,23.43c13.2-4.4,20.79-14.19,20.79-27.06,0-10.01-4.18-15.95-11.66-15.95-5.72,0-10.45,3.74-10.45,9.57,0,6.16,4.84,9.57,10.12,9.57h0.99c0,6.38-4.73,11.88-13.2,15.07ZM780.49,1371h16.28v-35.2h30.8V1371h16.17v-81.4h-16.17v32.01h-30.8V1289.6H780.49V1371ZM880,1337.45l2.421-8.91c2.42-8.47,4.839-17.71,6.929-26.62h0.441c2.42,8.8,4.619,18.15,7.15,26.62l2.42,8.91H880ZM908.6,1371h17.05l-26.18-81.4H880.331l-26.07,81.4h16.5l5.721-20.9h26.4Zm58.592,1.54a32.943,32.943,0,0,0,25.96-11.99l-8.58-10.12c-4.4,4.73-9.9,8.03-16.83,8.03-12.87,0-21.231-10.67-21.231-28.38,0-17.49,9.24-28.05,21.56-28.05,6.161,0,10.891,2.86,14.961,6.82l8.58-10.34a33.2,33.2,0,0,0-23.87-10.45c-20.571,0-37.841,15.73-37.841,42.57C929.9,1357.8,946.623,1372.54,967.194,1372.54Zm68.106,0c21.56,0,36.41-16.17,36.41-42.57s-14.85-41.91-36.41-41.91-36.411,15.4-36.411,41.91C998.889,1356.37,1013.74,1372.54,1035.3,1372.54Zm0-14.08c-12.1,0-19.8-11.11-19.8-28.49,0-17.49,7.7-27.94,19.8-27.94s19.8,10.45,19.8,27.94C1055.1,1347.35,1047.4,1358.46,1035.3,1358.46Zm52.2,12.54h29.04c17.93,0,31.57-7.59,31.57-23.98,0-11-6.49-17.16-15.29-19.25v-0.55c6.93-2.42,11.11-10.12,11.11-17.6,0-15.18-12.76-20.02-29.48-20.02H1087.5V1371Zm16.28-48.29v-20.68h9.68c9.79,0,14.63,2.86,14.63,10.01,0,6.49-4.51,10.67-14.85,10.67h-9.46Zm0,35.75v-23.65h11.33c11.22,0,17.16,3.3,17.16,11.22,0,8.47-6.05,12.43-17.16,12.43h-11.33Zm58.87,12.54h51.15v-13.64h-34.87v-21.78h28.6v-13.64h-28.6v-18.81h33.66V1289.6h-49.94V1371Zm66.65,0h51.15v-13.64h-34.87v-21.78h28.6v-13.64h-28.6v-18.81h33.66V1289.6H1229.3V1371Z" transform="translate(-775.094 -1028.06)"/>
  <path id="Things_beyond_reality." data-name="Things beyond reality." class="cls-1" d="M782.62,1436h4.44v-18.51h6.3v-3.69H776.38v3.69h6.24V1436Zm14.485,0h4.38v-11.55c1.26-1.23,2.13-1.89,3.51-1.89,1.65,0,2.37.93,2.37,3.51V1436h4.41v-10.47c0-4.23-1.56-6.75-5.19-6.75a7.646,7.646,0,0,0-5.28,2.46l0.18-3.15v-6.03h-4.38V1436Zm19.333,0h4.38v-16.8h-4.38V1436Zm2.22-19.5a2.442,2.442,0,0,0,2.61-2.4,2.636,2.636,0,0,0-5.25,0A2.451,2.451,0,0,0,818.658,1416.5Zm7.056,19.5h4.38v-11.55c1.26-1.23,2.13-1.89,3.51-1.89,1.65,0,2.37.93,2.37,3.51V1436h4.41v-10.47c0-4.23-1.56-6.75-5.19-6.75a7.743,7.743,0,0,0-5.46,2.64h-0.12l-0.3-2.22h-3.6V1436Zm25.2,7.29c5.61,0,9.12-2.58,9.12-5.97,0-2.94-2.19-4.2-6.24-4.2h-2.85c-1.98,0-2.64-.48-2.64-1.38a1.674,1.674,0,0,1,.72-1.44,7.155,7.155,0,0,0,2.16.39c3.6,0,6.48-1.92,6.48-5.7a4.227,4.227,0,0,0-.78-2.55h2.88v-3.24h-6.06a7.9,7.9,0,0,0-2.52-.42c-3.57,0-6.78,2.13-6.78,6.09a5.552,5.552,0,0,0,2.22,4.38v0.12a4.169,4.169,0,0,0-1.86,3.15,3.184,3.184,0,0,0,1.53,2.82v0.15a4.079,4.079,0,0,0-2.4,3.48C843.9,1441.94,846.958,1443.29,850.918,1443.29Zm0.27-15.33c-1.47,0-2.64-1.11-2.64-3.09s1.14-3.09,2.64-3.09,2.61,1.11,2.61,3.09S852.658,1427.96,851.188,1427.96Zm0.39,12.54c-2.46,0-4.02-.81-4.02-2.22a2.52,2.52,0,0,1,1.11-1.95,9.482,9.482,0,0,0,2.34.24h2.04c1.8,0,2.79.3,2.79,1.5C855.838,1439.39,854.1,1440.5,851.578,1440.5Zm16.83-4.08c4.38,0,6.69-2.37,6.69-5.31,0-3.12-2.46-4.23-4.68-5.07-1.77-.66-3.42-1.11-3.42-2.34,0-.96.72-1.62,2.22-1.62a6.467,6.467,0,0,1,3.63,1.44l1.98-2.67a9.4,9.4,0,0,0-5.73-2.07c-3.78,0-6.24,2.13-6.24,5.16,0,2.79,2.46,4.08,4.59,4.89,1.77,0.69,3.51,1.26,3.51,2.52,0,1.05-.75,1.77-2.43,1.77a7.293,7.293,0,0,1-4.5-1.83l-2.01,2.76A10.586,10.586,0,0,0,868.408,1436.42Zm26.83,0c3.69,0,7.14-3.33,7.14-9.12,0-5.13-2.49-8.52-6.63-8.52a7.168,7.168,0,0,0-4.65,2.01l0.09-2.7v-6.03h-4.38V1436h3.45l0.39-1.77h0.09A6.537,6.537,0,0,0,895.238,1436.42Zm-0.99-3.63a4.644,4.644,0,0,1-3.06-1.26v-7.38a4.737,4.737,0,0,1,3.33-1.74c2.31,0,3.33,1.77,3.33,4.98C897.848,1431.05,896.288,1432.79,894.248,1432.79Zm19.321,3.63a10.6,10.6,0,0,0,5.88-1.86l-1.5-2.7a6.925,6.925,0,0,1-3.78,1.17,4.414,4.414,0,0,1-4.65-4.2h10.35a8.2,8.2,0,0,0,.21-2.01c0-4.65-2.4-8.04-7.02-8.04-4.02,0-7.83,3.39-7.83,8.85C905.229,1433.15,908.889,1436.42,913.569,1436.42Zm-4.11-10.5c0.33-2.46,1.89-3.72,3.66-3.72,2.16,0,3.18,1.44,3.18,3.72h-6.84Zm15.206,16.83c3.75,0,5.55-2.28,7.02-6.24l5.97-17.31h-4.23l-2.31,7.8c-0.39,1.56-.81,3.18-1.2,4.74h-0.15c-0.48-1.62-.9-3.24-1.41-4.74l-2.67-7.8h-4.44l6.54,16.5-0.3.99a3.216,3.216,0,0,1-3.15,2.55,4.518,4.518,0,0,1-1.17-.21l-0.81,3.39A7.114,7.114,0,0,0,924.665,1442.75Zm22.4-6.33c4.2,0,8.07-3.24,8.07-8.79,0-5.61-3.87-8.85-8.07-8.85s-8.07,3.24-8.07,8.85C939,1433.18,942.868,1436.42,947.068,1436.42Zm0-3.6c-2.28,0-3.57-2.04-3.57-5.19,0-3.18,1.29-5.25,3.57-5.25s3.57,2.07,3.57,5.25C950.638,1430.78,949.348,1432.82,947.068,1432.82Zm12.385,3.18h4.38v-11.55c1.26-1.23,2.13-1.89,3.51-1.89,1.65,0,2.37.93,2.37,3.51V1436h4.41v-10.47c0-4.23-1.56-6.75-5.19-6.75a7.743,7.743,0,0,0-5.46,2.64h-0.12l-0.3-2.22h-3.6V1436Zm25.36,0.42a6.968,6.968,0,0,0,4.65-2.16h0.09l0.36,1.74h3.57v-23.94h-4.41v5.91l0.18,2.64a5.782,5.782,0,0,0-4.26-1.83c-3.63,0-7.05,3.36-7.05,8.85S980.643,1436.42,984.813,1436.42Zm1.14-3.63c-2.22,0-3.48-1.74-3.48-5.22,0-3.36,1.59-5.16,3.48-5.16a4.464,4.464,0,0,1,3.12,1.26v7.38A3.737,3.737,0,0,1,985.953,1432.79ZM1006.1,1436h4.38v-10.02c0.96-2.43,2.55-3.3,3.87-3.3a5.3,5.3,0,0,1,1.74.27l0.78-3.81a4.753,4.753,0,0,0-1.98-.36c-1.74,0-3.54,1.2-4.77,3.39H1010l-0.3-2.97h-3.6V1436Zm20.58,0.42a10.6,10.6,0,0,0,5.88-1.86l-1.5-2.7a6.925,6.925,0,0,1-3.78,1.17,4.414,4.414,0,0,1-4.65-4.2h10.35a8.2,8.2,0,0,0,.21-2.01c0-4.65-2.4-8.04-7.02-8.04-4.02,0-7.83,3.39-7.83,8.85C1018.34,1433.15,1022,1436.42,1026.68,1436.42Zm-4.11-10.5c0.33-2.46,1.89-3.72,3.66-3.72,2.16,0,3.18,1.44,3.18,3.72h-6.84Zm18.13,10.5a7.9,7.9,0,0,0,5.07-2.22h0.09l0.33,1.8h3.6v-9.81c0-4.86-2.19-7.41-6.45-7.41a13.421,13.421,0,0,0-7.02,2.22l1.59,2.91a9.492,9.492,0,0,1,4.62-1.59c2.07,0,2.79,1.26,2.85,2.91-6.75.72-9.66,2.61-9.66,6.21A4.772,4.772,0,0,0,1040.7,1436.42Zm1.44-3.45c-1.29,0-2.22-.57-2.22-1.89,0-1.5,1.38-2.61,5.46-3.15v3.39A4.454,4.454,0,0,1,1042.14,1432.97Zm16.88,3.45a6.005,6.005,0,0,0,2.28-.39l-0.54-3.27a2.485,2.485,0,0,1-.6.06c-0.42,0-.9-0.33-0.9-1.32v-19.44h-4.38v19.23C1054.88,1434.41,1055.96,1436.42,1059.02,1436.42Zm5.27-.42h4.38v-16.8h-4.38V1436Zm2.22-19.5a2.442,2.442,0,0,0,2.61-2.4,2.636,2.636,0,0,0-5.25,0A2.451,2.451,0,0,0,1066.51,1416.5Zm13.28,19.92a10.857,10.857,0,0,0,3.54-.63l-0.72-3.21a4.908,4.908,0,0,1-1.65.36c-1.5,0-2.28-.9-2.28-2.82v-7.44h4.14v-3.48h-4.14v-4.5h-3.69l-0.51,4.5-2.58.21v3.27h2.37v7.44C1074.27,1433.9,1075.8,1436.42,1079.79,1436.42Zm9.32,6.33c3.75,0,5.55-2.28,7.02-6.24l5.96-17.31h-4.23l-2.3,7.8c-0.39,1.56-.81,3.18-1.2,4.74h-0.15c-0.48-1.62-.9-3.24-1.41-4.74l-2.67-7.8h-4.44l6.54,16.5-0.3.99a3.216,3.216,0,0,1-3.15,2.55,4.518,4.518,0,0,1-1.17-.21l-0.81,3.39A7.114,7.114,0,0,0,1089.11,1442.75Zm16.87-6.33a2.884,2.884,0,1,0-2.73-2.88A2.763,2.763,0,0,0,1105.98,1436.42Z" transform="translate(-775.094 -1028.06)"/>
  <path id="Your_unusual_idea_could_become_the_standard_of_tomorrow._Let_s" data-name="Your unusual idea could become the standard of tomorrow.  Let’s" class="cls-1" d="M778.938,1461h2.369v-4.34l3.569-7.5h-2.465l-1.184,2.88c-0.337.88-.689,1.71-1.057,2.62h-0.064c-0.368-.91-0.688-1.74-1.024-2.62l-1.185-2.88h-2.513l3.554,7.5V1461Zm10.05,0.22a4.723,4.723,0,1,0-4.306-4.69A4.363,4.363,0,0,0,788.988,1461.22Zm0-1.92c-1.216,0-1.905-1.08-1.905-2.77s0.689-2.8,1.905-2.8,1.9,1.11,1.9,2.8S790.2,1459.3,788.988,1459.3Zm9.188,1.92a3.606,3.606,0,0,0,2.866-1.5h0.063l0.177,1.28h1.92v-8.96h-2.353v6.05a2.159,2.159,0,0,1-1.824,1.12c-0.865,0-1.249-.48-1.249-1.88v-5.29h-2.353v5.6C795.423,1459.88,796.255,1461.22,798.176,1461.22Zm7.58-.22h2.337v-5.35a2.359,2.359,0,0,1,2.065-1.76,2.721,2.721,0,0,1,.928.15l0.416-2.03a2.4,2.4,0,0,0-1.056-.2,3.1,3.1,0,0,0-2.545,1.81h-0.064l-0.16-1.58h-1.921V1461Zm14.3,0.22a3.6,3.6,0,0,0,2.865-1.5h0.064l0.176,1.28h1.921v-8.96h-2.353v6.05a2.159,2.159,0,0,1-1.825,1.12c-0.864,0-1.248-.48-1.248-1.88v-5.29H817.3v5.6C817.3,1459.88,818.132,1461.22,820.053,1461.22Zm7.58-.22h2.337v-6.16a2.564,2.564,0,0,1,1.872-1.01c0.881,0,1.265.5,1.265,1.87v5.3h2.353v-5.59c0-2.25-.832-3.6-2.769-3.6a4.124,4.124,0,0,0-2.913,1.41h-0.064l-0.16-1.18h-1.921V1461Zm12.926,0.22a3.6,3.6,0,0,0,2.865-1.5h0.064l0.176,1.28h1.921v-8.96h-2.353v6.05a2.162,2.162,0,0,1-1.825,1.12c-0.864,0-1.248-.48-1.248-1.88v-5.29h-2.353v5.6C837.806,1459.88,838.638,1461.22,840.559,1461.22Zm10.172,0c2.338,0,3.57-1.26,3.57-2.83,0-1.66-1.313-2.26-2.5-2.7-0.944-.36-1.825-0.6-1.825-1.25a0.963,0.963,0,0,1,1.185-.87,3.438,3.438,0,0,1,1.936.77l1.057-1.42a5.021,5.021,0,0,0-3.057-1.11c-2.017,0-3.33,1.14-3.33,2.76,0,1.48,1.313,2.17,2.449,2.61,0.945,0.36,1.873.67,1.873,1.34,0,0.56-.4.94-1.3,0.94a3.909,3.909,0,0,1-2.4-.97l-1.072,1.47A5.62,5.62,0,0,0,850.731,1461.22Zm8.416,0a3.606,3.606,0,0,0,2.866-1.5h0.064l0.176,1.28h1.92v-8.96h-2.352v6.05a2.162,2.162,0,0,1-1.825,1.12c-0.864,0-1.249-.48-1.249-1.88v-5.29h-2.353v5.6C856.394,1459.88,857.227,1461.22,859.147,1461.22Zm9.754,0a4.221,4.221,0,0,0,2.705-1.18h0.048l0.176,0.96h1.921v-5.23c0-2.6-1.169-3.96-3.441-3.96a7.134,7.134,0,0,0-3.746,1.19l0.848,1.55a5.073,5.073,0,0,1,2.465-.85,1.4,1.4,0,0,1,1.521,1.55c-3.6.39-5.154,1.4-5.154,3.32A2.541,2.541,0,0,0,868.9,1461.22Zm0.768-1.84a1,1,0,0,1-1.184-1c0-.8.736-1.4,2.913-1.69v1.81A2.376,2.376,0,0,1,869.669,1459.38Zm8.474,1.84a3.268,3.268,0,0,0,1.216-.2l-0.288-1.75a1.411,1.411,0,0,1-.32.03c-0.224,0-.48-0.17-0.48-0.7v-10.37h-2.337v10.26C875.934,1460.15,876.51,1461.22,878.143,1461.22Zm7.431-.22h2.337v-8.96h-2.337V1461Zm1.184-10.4a1.307,1.307,0,0,0,1.393-1.28,1.406,1.406,0,0,0-2.8,0A1.311,1.311,0,0,0,886.758,1450.6Zm7.206,10.62a3.719,3.719,0,0,0,2.481-1.15h0.048l0.192,0.93h1.905v-12.77h-2.353v3.15l0.1,1.41a3.1,3.1,0,0,0-2.273-.98c-1.937,0-3.762,1.8-3.762,4.72S891.739,1461.22,893.964,1461.22Zm0.608-1.93c-1.184,0-1.857-.93-1.857-2.79,0-1.79.848-2.75,1.857-2.75a2.409,2.409,0,0,1,1.665.67v3.94A2,2,0,0,1,894.572,1459.29Zm10.414,1.93a5.641,5.641,0,0,0,3.138-.99l-0.8-1.44a3.7,3.7,0,0,1-2.016.63,2.357,2.357,0,0,1-2.482-2.24h5.523a4.47,4.47,0,0,0,.112-1.08c0-2.48-1.281-4.29-3.746-4.29-2.144,0-4.177,1.81-4.177,4.72A4.34,4.34,0,0,0,904.986,1461.22Zm-2.193-5.6a2.019,2.019,0,0,1,1.953-1.98c1.153,0,1.7.77,1.7,1.98h-3.65Zm9.678,5.6a4.223,4.223,0,0,0,2.705-1.18h0.048L915.4,1461h1.92v-5.23c0-2.6-1.168-3.96-3.441-3.96a7.13,7.13,0,0,0-3.745,1.19l0.848,1.55a5.069,5.069,0,0,1,2.465-.85,1.4,1.4,0,0,1,1.521,1.55c-3.6.39-5.155,1.4-5.155,3.32A2.541,2.541,0,0,0,912.471,1461.22Zm0.768-1.84a1,1,0,0,1-1.185-1c0-.8.737-1.4,2.914-1.69v1.81A2.379,2.379,0,0,1,913.239,1459.38Zm14.472,1.84a4.447,4.447,0,0,0,2.929-1.08l-0.928-1.56a2.763,2.763,0,0,1-1.745.72c-1.3,0-2.225-1.08-2.225-2.77s0.929-2.8,2.289-2.8a2.029,2.029,0,0,1,1.377.6l1.12-1.52a3.874,3.874,0,0,0-2.609-1,4.476,4.476,0,0,0-4.578,4.72C923.341,1459.5,925.23,1461.22,927.711,1461.22Zm7.987,0a4.724,4.724,0,1,0-4.3-4.69A4.363,4.363,0,0,0,935.7,1461.22Zm0-1.92c-1.216,0-1.9-1.08-1.9-2.77s0.688-2.8,1.9-2.8,1.9,1.11,1.9,2.8S936.915,1459.3,935.7,1459.3Zm9.189,1.92a3.6,3.6,0,0,0,2.865-1.5h0.064l0.176,1.28h1.921v-8.96H947.56v6.05a2.161,2.161,0,0,1-1.825,1.12c-0.864,0-1.248-.48-1.248-1.88v-5.29h-2.353v5.6C942.134,1459.88,942.966,1461.22,944.887,1461.22Zm9.78,0a3.27,3.27,0,0,0,1.217-.2l-0.288-1.75a1.411,1.411,0,0,1-.32.03c-0.224,0-.481-0.17-0.481-0.7v-10.37h-2.337v10.26C952.458,1460.15,953.035,1461.22,954.667,1461.22Zm6.156,0a3.716,3.716,0,0,0,2.481-1.15h0.048l0.192,0.93h1.9v-12.77H963.1v3.15l0.1,1.41a3.1,3.1,0,0,0-2.273-.98c-1.937,0-3.762,1.8-3.762,4.72S958.6,1461.22,960.823,1461.22Zm0.608-1.93c-1.184,0-1.856-.93-1.856-2.79,0-1.79.848-2.75,1.856-2.75a2.407,2.407,0,0,1,1.665.67v3.94A2,2,0,0,1,961.431,1459.29Zm15.377,1.93c1.968,0,3.809-1.77,3.809-4.86,0-2.74-1.328-4.55-3.537-4.55a3.784,3.784,0,0,0-2.481,1.08l0.048-1.45v-3.21H972.31V1461h1.84l0.209-.94h0.048A3.483,3.483,0,0,0,976.808,1461.22Zm-0.529-1.93a2.5,2.5,0,0,1-1.632-.67v-3.94a2.507,2.507,0,0,1,1.776-.93c1.233,0,1.777.94,1.777,2.66C978.2,1458.36,977.368,1459.29,976.279,1459.29Zm10.24,1.93a5.641,5.641,0,0,0,3.138-.99l-0.8-1.44a3.7,3.7,0,0,1-2.017.63,2.356,2.356,0,0,1-2.481-2.24h5.523a4.47,4.47,0,0,0,.112-1.08c0-2.48-1.281-4.29-3.746-4.29-2.145,0-4.178,1.81-4.178,4.72A4.341,4.341,0,0,0,986.519,1461.22Zm-2.193-5.6a2.018,2.018,0,0,1,1.953-1.98c1.153,0,1.7.77,1.7,1.98h-3.65Zm11.459,5.6a4.449,4.449,0,0,0,2.929-1.08l-0.929-1.56a2.76,2.76,0,0,1-1.744.72c-1.3,0-2.225-1.08-2.225-2.77s0.928-2.8,2.289-2.8a2.032,2.032,0,0,1,1.377.6l1.12-1.52a3.876,3.876,0,0,0-2.609-1,4.476,4.476,0,0,0-4.578,4.72C991.415,1459.5,993.3,1461.22,995.785,1461.22Zm7.985,0a4.724,4.724,0,1,0-4.3-4.69A4.366,4.366,0,0,0,1003.77,1461.22Zm0-1.92c-1.21,0-1.9-1.08-1.9-2.77s0.69-2.8,1.9-2.8,1.91,1.11,1.91,2.8S1004.99,1459.3,1003.77,1459.3Zm6.54,1.7h2.34v-6.16a2.635,2.635,0,0,1,1.73-1.01c0.85,0,1.25.5,1.25,1.87v5.3h2.35v-6.16a2.635,2.635,0,0,1,1.73-1.01c0.85,0,1.25.5,1.25,1.87v5.3h2.35v-5.59c0-2.25-.88-3.6-2.79-3.6a3.978,3.978,0,0,0-2.84,1.57,2.458,2.458,0,0,0-2.47-1.57,3.747,3.747,0,0,0-2.75,1.43h-0.07l-0.16-1.2h-1.92V1461Zm19.21,0.22a5.647,5.647,0,0,0,3.14-.99l-0.8-1.44a3.7,3.7,0,0,1-2.02.63,2.353,2.353,0,0,1-2.48-2.24h5.52a4.123,4.123,0,0,0,.12-1.08c0-2.48-1.28-4.29-3.75-4.29a4.393,4.393,0,0,0-4.18,4.72A4.345,4.345,0,0,0,1029.52,1461.22Zm-2.19-5.6a2.021,2.021,0,0,1,1.95-1.98c1.15,0,1.7.77,1.7,1.98h-3.65Zm15.22,5.6a5.789,5.789,0,0,0,1.89-.33l-0.38-1.71a2.759,2.759,0,0,1-.88.19c-0.8,0-1.22-.48-1.22-1.51v-3.97h2.21v-1.85h-2.21v-2.4h-1.97l-0.27,2.4-1.38.11v1.74h1.27v3.97C1039.61,1459.88,1040.43,1461.22,1042.55,1461.22Zm4.08-.22h2.34v-6.16a2.55,2.55,0,0,1,1.87-1.01c0.88,0,1.26.5,1.26,1.87v5.3h2.36v-5.59c0-2.25-.84-3.6-2.77-3.6a4.053,4.053,0,0,0-2.82,1.32l0.1-1.69v-3.21h-2.34V1461Zm14.21,0.22a5.647,5.647,0,0,0,3.14-.99l-0.8-1.44a3.7,3.7,0,0,1-2.02.63,2.353,2.353,0,0,1-2.48-2.24h5.52a4.7,4.7,0,0,0,.11-1.08c0-2.48-1.28-4.29-3.74-4.29-2.15,0-4.18,1.81-4.18,4.72A4.34,4.34,0,0,0,1060.84,1461.22Zm-2.19-5.6a2.008,2.008,0,0,1,1.95-1.98c1.15,0,1.7.77,1.7,1.98h-3.65Zm14.5,5.6c2.34,0,3.57-1.26,3.57-2.83,0-1.66-1.31-2.26-2.5-2.7-0.94-.36-1.82-0.6-1.82-1.25a0.959,0.959,0,0,1,1.18-.87,3.428,3.428,0,0,1,1.94.77l1.06-1.42a5.054,5.054,0,0,0-3.06-1.11c-2.02,0-3.33,1.14-3.33,2.76,0,1.48,1.31,2.17,2.45,2.61,0.94,0.36,1.87.67,1.87,1.34,0,0.56-.4.94-1.3,0.94a3.908,3.908,0,0,1-2.4-.97l-1.07,1.47A5.623,5.623,0,0,0,1073.15,1461.22Zm9.21,0a5.789,5.789,0,0,0,1.89-.33l-0.38-1.71a2.819,2.819,0,0,1-.88.19c-0.8,0-1.22-.48-1.22-1.51v-3.97h2.21v-1.85h-2.21v-2.4h-1.97l-0.27,2.4-1.38.11v1.74h1.27v3.97C1079.42,1459.88,1080.23,1461.22,1082.36,1461.22Zm6.18,0a4.209,4.209,0,0,0,2.7-1.18h0.05l0.18,0.96h1.92v-5.23c0-2.6-1.17-3.96-3.44-3.96a7.154,7.154,0,0,0-3.75,1.19l0.85,1.55a5.052,5.052,0,0,1,2.46-.85,1.391,1.391,0,0,1,1.52,1.55c-3.6.39-5.15,1.4-5.15,3.32A2.544,2.544,0,0,0,1088.54,1461.22Zm0.77-1.84a1,1,0,0,1-1.19-1c0-.8.74-1.4,2.91-1.69v1.81A2.363,2.363,0,0,1,1089.31,1459.38Zm6.29,1.62h2.34v-6.16a2.567,2.567,0,0,1,1.87-1.01c0.88,0,1.27.5,1.27,1.87v5.3h2.35v-5.59c0-2.25-.83-3.6-2.77-3.6a4.1,4.1,0,0,0-2.91,1.41h-0.07l-0.16-1.18h-1.92V1461Zm13.47,0.22a3.739,3.739,0,0,0,2.48-1.15h0.05l0.19,0.93h1.9v-12.77h-2.35v3.15l0.09,1.41a3.087,3.087,0,0,0-2.27-.98c-1.93,0-3.76,1.8-3.76,4.72S1106.84,1461.22,1109.07,1461.22Zm0.6-1.93c-1.18,0-1.85-.93-1.85-2.79,0-1.79.85-2.75,1.85-2.75a2.429,2.429,0,0,1,1.67.67v3.94A2,2,0,0,1,1109.67,1459.29Zm8.65,1.93a4.234,4.234,0,0,0,2.71-1.18h0.05l0.17,0.96h1.92v-5.23c0-2.6-1.17-3.96-3.44-3.96a7.09,7.09,0,0,0-3.74,1.19l0.84,1.55a5.121,5.121,0,0,1,2.47-.85,1.4,1.4,0,0,1,1.52,1.55c-3.6.39-5.15,1.4-5.15,3.32A2.536,2.536,0,0,0,1118.32,1461.22Zm0.77-1.84a1,1,0,0,1-1.18-1c0-.8.73-1.4,2.91-1.69v1.81A2.383,2.383,0,0,1,1119.09,1459.38Zm6.3,1.62h2.33v-5.35a2.376,2.376,0,0,1,2.07-1.76,2.749,2.749,0,0,1,.93.15l0.41-2.03a2.381,2.381,0,0,0-1.05-.2,3.113,3.113,0,0,0-2.55,1.81h-0.06l-0.16-1.58h-1.92V1461Zm10.38,0.22a3.739,3.739,0,0,0,2.48-1.15h0.04l0.2,0.93h1.9v-12.77h-2.35v3.15l0.09,1.41a3.087,3.087,0,0,0-2.27-.98c-1.94,0-3.76,1.8-3.76,4.72S1133.54,1461.22,1135.77,1461.22Zm0.6-1.93c-1.18,0-1.85-.93-1.85-2.79,0-1.79.85-2.75,1.85-2.75a2.429,2.429,0,0,1,1.67.67v3.94A2,2,0,0,1,1136.37,1459.29Zm14.63,1.93a4.723,4.723,0,1,0-4.31-4.69A4.359,4.359,0,0,0,1151,1461.22Zm0-1.92c-1.22,0-1.91-1.08-1.91-2.77s0.69-2.8,1.91-2.8,1.9,1.11,1.9,2.8S1152.21,1459.3,1151,1459.3Zm11.67-10.98a4.712,4.712,0,0,0-1.7-.32c-2.26,0-3.12,1.44-3.12,3.32v0.73l-1.2.1v1.74h1.2V1461h2.35v-7.11h1.68v-1.85h-1.68v-0.77c0-.99.38-1.41,1.09-1.41a2.915,2.915,0,0,1,.94.19Zm8.7,12.9a5.84,5.84,0,0,0,1.89-.33l-0.39-1.71a2.759,2.759,0,0,1-.88.19c-0.8,0-1.21-.48-1.21-1.51v-3.97h2.21v-1.85h-2.21v-2.4h-1.97l-0.27,2.4-1.38.11v1.74h1.26v3.97C1168.42,1459.88,1169.24,1461.22,1171.37,1461.22Zm7.68,0a4.724,4.724,0,1,0-4.3-4.69A4.366,4.366,0,0,0,1179.05,1461.22Zm0-1.92c-1.21,0-1.9-1.08-1.9-2.77s0.69-2.8,1.9-2.8,1.91,1.11,1.91,2.8S1180.27,1459.3,1179.05,1459.3Zm6.54,1.7h2.34v-6.16a2.635,2.635,0,0,1,1.73-1.01c0.85,0,1.25.5,1.25,1.87v5.3h2.35v-6.16a2.635,2.635,0,0,1,1.73-1.01c0.85,0,1.25.5,1.25,1.87v5.3h2.35v-5.59c0-2.25-.88-3.6-2.79-3.6a3.978,3.978,0,0,0-2.84,1.57,2.458,2.458,0,0,0-2.47-1.57,3.747,3.747,0,0,0-2.75,1.43h-0.07l-0.16-1.2h-1.92V1461Zm19.07,0.22a4.723,4.723,0,1,0-4.31-4.69A4.359,4.359,0,0,0,1204.66,1461.22Zm0-1.92c-1.22,0-1.91-1.08-1.91-2.77s0.69-2.8,1.91-2.8,1.9,1.11,1.9,2.8S1205.87,1459.3,1204.66,1459.3Zm6.54,1.7h2.34v-5.35a2.356,2.356,0,0,1,2.06-1.76,2.708,2.708,0,0,1,.93.15l0.42-2.03a2.43,2.43,0,0,0-1.06-.2,3.113,3.113,0,0,0-2.55,1.81h-0.06l-0.16-1.58h-1.92V1461Zm7.38,0h2.33v-5.35a2.366,2.366,0,0,1,2.07-1.76,2.749,2.749,0,0,1,.93.15l0.41-2.03a2.381,2.381,0,0,0-1.05-.2,3.113,3.113,0,0,0-2.55,1.81h-0.06l-0.16-1.58h-1.92V1461Zm10.97,0.22a4.723,4.723,0,1,0-4.31-4.69A4.359,4.359,0,0,0,1229.55,1461.22Zm0-1.92c-1.22,0-1.91-1.08-1.91-2.77s0.69-2.8,1.91-2.8,1.9,1.11,1.9,2.8S1230.76,1459.3,1229.55,1459.3Zm7.8,1.7h2.69l0.91-3.9c0.19-.84.32-1.67,0.5-2.61h0.08c0.17,0.94.32,1.76,0.51,2.61l0.94,3.9h2.77l2.21-8.96h-2.18l-0.97,4.43c-0.18.86-.29,1.73-0.45,2.61h-0.08c-0.19-.88-0.35-1.75-0.56-2.61l-1.12-4.43h-2.1l-1.07,4.43c-0.22.85-.38,1.73-0.56,2.61h-0.06c-0.16-.88-0.28-1.75-0.45-2.61l-0.98-4.43h-2.35Zm13.59,0.22a1.537,1.537,0,1,0-1.46-1.53A1.468,1.468,0,0,0,1250.94,1461.22Zm-474,19.78h7.171v-1.98h-4.8v-9.86h-2.369V1481Zm12.885,0.22a5.638,5.638,0,0,0,3.137-.99l-0.8-1.44a3.706,3.706,0,0,1-2.017.63,2.356,2.356,0,0,1-2.481-2.24h5.522a4.47,4.47,0,0,0,.112-1.08c0-2.48-1.28-4.29-3.746-4.29-2.144,0-4.177,1.81-4.177,4.72A4.341,4.341,0,0,0,789.822,1481.22Zm-2.193-5.6a2.018,2.018,0,0,1,1.952-1.98c1.153,0,1.7.77,1.7,1.98h-3.649Zm10.922,5.6a5.813,5.813,0,0,0,1.889-.33l-0.384-1.71a2.783,2.783,0,0,1-.881.19c-0.8,0-1.216-.48-1.216-1.51v-3.97h2.209v-1.85h-2.209v-2.4H795.99l-0.272,2.4-1.377.11v1.74h1.265v3.97C795.606,1479.88,796.422,1481.22,798.551,1481.22Zm4.636-7.01a3.916,3.916,0,0,0,2.417-3.69c0-1.38-.545-2.18-1.553-2.18a1.244,1.244,0,0,0-1.28,1.34,1.219,1.219,0,0,0,1.28,1.24,0.44,0.44,0,0,0,.16-0.02,2.514,2.514,0,0,1-1.553,2.29Zm6.848,7.01c2.337,0,3.57-1.26,3.57-2.83,0-1.66-1.313-2.26-2.5-2.7-0.945-.36-1.825-0.6-1.825-1.25a0.963,0.963,0,0,1,1.185-.87,3.438,3.438,0,0,1,1.936.77l1.057-1.42a5.021,5.021,0,0,0-3.057-1.11c-2.017,0-3.33,1.14-3.33,2.76,0,1.48,1.313,2.17,2.449,2.61,0.945,0.36,1.873.67,1.873,1.34,0,0.56-.4.94-1.3,0.94a3.9,3.9,0,0,1-2.4-.97l-1.073,1.47A5.62,5.62,0,0,0,810.035,1481.22Zm10.08-.22H822.4v-2.24l1.3-1.47,2.177,3.71h2.545l-3.394-5.3,3.106-3.66h-2.561l-3.106,3.87H822.4v-7.68h-2.288V1481Zm13.823,0.22a5.641,5.641,0,0,0,3.138-.99l-0.8-1.44a3.7,3.7,0,0,1-2.016.63,2.356,2.356,0,0,1-2.481-2.24H837.3a4.47,4.47,0,0,0,.112-1.08c0-2.48-1.281-4.29-3.746-4.29-2.144,0-4.177,1.81-4.177,4.72A4.34,4.34,0,0,0,833.938,1481.22Zm-2.193-5.6a2.019,2.019,0,0,1,1.953-1.98c1.153,0,1.7.77,1.7,1.98h-3.65Zm11.539,5.6a5.638,5.638,0,0,0,3.137-.99l-0.8-1.44a3.7,3.7,0,0,1-2.017.63,2.356,2.356,0,0,1-2.481-2.24h5.522a4.47,4.47,0,0,0,.112-1.08c0-2.48-1.28-4.29-3.745-4.29-2.145,0-4.178,1.81-4.178,4.72A4.341,4.341,0,0,0,843.284,1481.22Zm-2.193-5.6a2.018,2.018,0,0,1,1.953-1.98c1.152,0,1.7.77,1.7,1.98h-3.65Zm7.624,8.82h2.336v-2.72l-0.064-1.47a3.345,3.345,0,0,0,2.225.97c1.969,0,3.81-1.77,3.81-4.85,0-2.75-1.313-4.56-3.522-4.56a4.214,4.214,0,0,0-2.641,1.16H850.8l-0.16-.93h-1.92v12.4Zm3.969-5.15a2.539,2.539,0,0,1-1.633-.67v-3.94a2.51,2.51,0,0,1,1.777-.93c1.233,0,1.777.94,1.777,2.66C854.605,1478.36,853.773,1479.29,852.684,1479.29Zm14.48,1.93a4.449,4.449,0,0,0,2.929-1.08l-0.928-1.56a2.763,2.763,0,0,1-1.745.72c-1.3,0-2.225-1.08-2.225-2.77s0.928-2.8,2.289-2.8a2.032,2.032,0,0,1,1.377.6l1.12-1.52a3.874,3.874,0,0,0-2.609-1,4.476,4.476,0,0,0-4.578,4.72C862.794,1479.5,864.683,1481.22,867.164,1481.22Zm4.375-.22h2.336v-6.16a2.567,2.567,0,0,1,1.873-1.01c0.881,0,1.265.5,1.265,1.87v5.3h2.353v-5.59c0-2.25-.833-3.6-2.769-3.6a4.056,4.056,0,0,0-2.818,1.32l0.1-1.69v-3.21h-2.336V1481Zm12.437,0.22a4.219,4.219,0,0,0,2.705-1.18h0.048l0.176,0.96h1.921v-5.23c0-2.6-1.168-3.96-3.441-3.96a7.134,7.134,0,0,0-3.746,1.19l0.849,1.55a5.066,5.066,0,0,1,2.464-.85,1.4,1.4,0,0,1,1.521,1.55c-3.6.39-5.154,1.4-5.154,3.32A2.541,2.541,0,0,0,883.976,1481.22Zm0.768-1.84a1,1,0,0,1-1.184-1c0-.8.736-1.4,2.913-1.69v1.81A2.376,2.376,0,0,1,884.744,1479.38Zm8.474,1.84a3.268,3.268,0,0,0,1.216-.2l-0.288-1.75a1.411,1.411,0,0,1-.32.03c-0.224,0-.48-0.17-0.48-0.7v-10.37h-2.337v10.26C891.009,1480.15,891.585,1481.22,893.218,1481.22Zm5.216,0a3.268,3.268,0,0,0,1.216-.2l-0.288-1.75a1.411,1.411,0,0,1-.32.03c-0.224,0-.48-0.17-0.48-0.7v-10.37h-2.337v10.26C896.225,1480.15,896.8,1481.22,898.434,1481.22Zm6.866,0a5.635,5.635,0,0,0,3.137-.99l-0.8-1.44a3.7,3.7,0,0,1-2.017.63,2.356,2.356,0,0,1-2.481-2.24h5.522a4.47,4.47,0,0,0,.112-1.08c0-2.48-1.28-4.29-3.745-4.29-2.145,0-4.178,1.81-4.178,4.72A4.341,4.341,0,0,0,905.3,1481.22Zm-2.193-5.6a2.018,2.018,0,0,1,1.953-1.98c1.152,0,1.7.77,1.7,1.98h-3.65Zm7.623,5.38h2.337v-6.16a2.567,2.567,0,0,1,1.873-1.01c0.881,0,1.265.5,1.265,1.87v5.3h2.353v-5.59c0-2.25-.833-3.6-2.77-3.6a4.128,4.128,0,0,0-2.913,1.41h-0.064l-0.16-1.18H910.73V1481Zm13.383,3.89c2.993,0,4.865-1.38,4.865-3.19,0-1.56-1.168-2.24-3.329-2.24h-1.521c-1.056,0-1.408-.25-1.408-0.73a0.9,0.9,0,0,1,.384-0.77,3.761,3.761,0,0,0,1.153.21c1.92,0,3.457-1.03,3.457-3.04a2.245,2.245,0,0,0-.416-1.36h1.536v-1.73H925.6a4.154,4.154,0,0,0-1.344-.23c-1.9,0-3.618,1.14-3.618,3.25a2.97,2.97,0,0,0,1.185,2.34v0.06a2.235,2.235,0,0,0-.993,1.68,1.711,1.711,0,0,0,.816,1.51v0.08a2.167,2.167,0,0,0-1.28,1.86C920.367,1484.17,922,1484.89,924.113,1484.89Zm0.144-8.18a1.674,1.674,0,1,1,1.392-1.65A1.453,1.453,0,0,1,924.257,1476.71Zm0.208,6.69c-1.313,0-2.145-.43-2.145-1.18a1.341,1.341,0,0,1,.592-1.04,5.121,5.121,0,0,0,1.249.12h1.088c0.96,0,1.488.16,1.488,0.8C926.737,1482.81,925.809,1483.4,924.465,1483.4Zm6.71-2.4h2.337v-8.96h-2.337V1481Zm1.185-10.4a1.306,1.306,0,0,0,1.392-1.28,1.406,1.406,0,0,0-2.8,0A1.311,1.311,0,0,0,932.36,1470.6Zm4.031,10.4h2.337v-6.16a2.565,2.565,0,0,1,1.873-1.01c0.88,0,1.265.5,1.265,1.87v5.3h2.352v-5.59c0-2.25-.832-3.6-2.769-3.6a4.126,4.126,0,0,0-2.913,1.41h-0.064l-0.16-1.18h-1.921V1481Zm13.382,3.89c2.994,0,4.866-1.38,4.866-3.19,0-1.56-1.168-2.24-3.329-2.24h-1.521c-1.056,0-1.408-.25-1.408-0.73a0.9,0.9,0,0,1,.384-0.77,3.76,3.76,0,0,0,1.152.21c1.921,0,3.458-1.03,3.458-3.04a2.245,2.245,0,0,0-.416-1.36H954.5v-1.73h-3.233a4.155,4.155,0,0,0-1.345-.23c-1.9,0-3.617,1.14-3.617,3.25a2.973,2.973,0,0,0,1.184,2.34v0.06a2.237,2.237,0,0,0-.992,1.68,1.711,1.711,0,0,0,.816,1.51v0.08a2.167,2.167,0,0,0-1.28,1.86C946.028,1484.17,947.66,1484.89,949.773,1484.89Zm0.144-8.18a1.674,1.674,0,1,1,1.393-1.65A1.453,1.453,0,0,1,949.917,1476.71Zm0.209,6.69c-1.313,0-2.145-.43-2.145-1.18a1.341,1.341,0,0,1,.592-1.04,5.118,5.118,0,0,0,1.248.12h1.089c0.96,0,1.488.16,1.488,0.8C952.4,1482.81,951.47,1483.4,950.126,1483.4Zm14.415-2.18a5.808,5.808,0,0,0,1.889-.33l-0.384-1.71a2.771,2.771,0,0,1-.88.19c-0.8,0-1.217-.48-1.217-1.51v-3.97h2.209v-1.85h-2.209v-2.4H961.98l-0.272,2.4-1.376.11v1.74H961.6v3.97C961.6,1479.88,962.413,1481.22,964.541,1481.22Zm4.076-.22h2.337v-6.16a2.564,2.564,0,0,1,1.872-1.01c0.881,0,1.265.5,1.265,1.87v5.3h2.353v-5.59c0-2.25-.832-3.6-2.769-3.6a4.052,4.052,0,0,0-2.817,1.32l0.1-1.69v-3.21h-2.337V1481Zm14.209,0.22a5.641,5.641,0,0,0,3.138-.99l-0.8-1.44a3.7,3.7,0,0,1-2.017.63,2.356,2.356,0,0,1-2.48-2.24h5.522a4.47,4.47,0,0,0,.112-1.08c0-2.48-1.281-4.29-3.746-4.29-2.145,0-4.177,1.81-4.177,4.72A4.34,4.34,0,0,0,982.826,1481.22Zm-2.192-5.6a2.018,2.018,0,0,1,1.952-1.98c1.153,0,1.7.77,1.7,1.98h-3.649Zm13.431,5.38h2.69l0.912-3.91c0.192-.83.32-1.66,0.5-2.6h0.08c0.176,0.94.32,1.76,0.512,2.6L999.7,1481h2.77l2.21-8.96h-2.18l-0.98,4.43c-0.17.86-.28,1.73-0.44,2.61H1001c-0.2-.88-0.36-1.75-0.56-2.61l-1.124-4.43h-2.1l-1.073,4.43c-0.224.85-.384,1.73-0.56,2.61h-0.064c-0.16-.88-0.272-1.75-0.448-2.61l-0.976-4.43h-2.354Zm16.365,0.22a4.724,4.724,0,1,0-4.3-4.69A4.361,4.361,0,0,0,1010.43,1481.22Zm0-1.92c-1.21,0-1.9-1.08-1.9-2.77s0.69-2.8,1.9-2.8,1.91,1.11,1.91,2.8S1011.65,1479.3,1010.43,1479.3Zm6.55,1.7h2.33v-5.35a2.356,2.356,0,0,1,2.07-1.76,2.749,2.749,0,0,1,.93.15l0.41-2.04a2.554,2.554,0,0,0-1.05-.19,3.113,3.113,0,0,0-2.55,1.81h-0.06l-0.16-1.58h-1.92V1481Zm9.58,0.22a3.26,3.26,0,0,0,1.22-.2l-0.29-1.75a1.393,1.393,0,0,1-.32.03c-0.22,0-.48-0.17-0.48-0.7v-10.37h-2.34v10.26C1024.35,1480.15,1024.93,1481.22,1026.56,1481.22Zm6.16,0a3.718,3.718,0,0,0,2.48-1.15h0.05l0.19,0.93h1.9v-12.77h-2.35v3.15l0.1,1.41a3.109,3.109,0,0,0-2.28-.98c-1.93,0-3.76,1.8-3.76,4.72S1030.49,1481.22,1032.72,1481.22Zm0.61-1.93c-1.19,0-1.86-.93-1.86-2.79,0-1.79.85-2.75,1.86-2.75a2.389,2.389,0,0,1,1.66.67v3.94A2,2,0,0,1,1033.33,1479.29Zm12.36,1.71h2.69l0.91-3.91c0.2-.83.32-1.66,0.5-2.6h0.08c0.18,0.94.32,1.76,0.51,2.6l0.95,3.91h2.77l2.2-8.96h-2.17l-0.98,4.43c-0.17.86-.29,1.73-0.45,2.61h-0.08c-0.19-.88-0.35-1.75-0.56-2.61l-1.12-4.43h-2.09l-1.08,4.43c-0.22.85-.38,1.73-0.56,2.61h-0.06c-0.16-.88-0.27-1.75-0.45-2.61l-0.98-4.43h-2.35Zm12.71,0h2.33v-6.16a2.585,2.585,0,0,1,1.88-1.01c0.88,0,1.26.5,1.26,1.87v5.3h2.35v-5.59c0-2.25-.83-3.6-2.77-3.6a4.049,4.049,0,0,0-2.81,1.32l0.09-1.69v-3.21h-2.33V1481Zm14.21,0.22a5.615,5.615,0,0,0,3.13-.99l-0.8-1.44a3.7,3.7,0,0,1-2.01.63,2.368,2.368,0,0,1-2.49-2.24h5.53a4.7,4.7,0,0,0,.11-1.08c0-2.48-1.28-4.29-3.75-4.29-2.14,0-4.17,1.81-4.17,4.72A4.34,4.34,0,0,0,1072.61,1481.22Zm-2.2-5.6a2.023,2.023,0,0,1,1.96-1.98c1.15,0,1.69.77,1.69,1.98h-3.65Zm7.63,5.38h2.33v-5.35a2.366,2.366,0,0,1,2.07-1.76,2.749,2.749,0,0,1,.93.15l0.41-2.04a2.554,2.554,0,0,0-1.05-.19,3.113,3.113,0,0,0-2.55,1.81h-0.06l-0.16-1.58h-1.92V1481Zm11.11,0.22a5.647,5.647,0,0,0,3.14-.99l-0.8-1.44a3.7,3.7,0,0,1-2.02.63,2.353,2.353,0,0,1-2.48-2.24h5.52a4.2,4.2,0,0,0,.11-1.08c0-2.48-1.28-4.29-3.74-4.29-2.15,0-4.18,1.81-4.18,4.72A4.34,4.34,0,0,0,1089.15,1481.22Zm-2.19-5.6a2.015,2.015,0,0,1,1.95-1.98c1.15,0,1.7.77,1.7,1.98h-3.65Zm11.94,8.82h2.34v-2.72l-0.07-1.47a3.347,3.347,0,0,0,2.23.97c1.97,0,3.81-1.77,3.81-4.85,0-2.75-1.32-4.56-3.52-4.56a4.254,4.254,0,0,0-2.65,1.16h-0.06l-0.16-.93h-1.92v12.4Zm3.97-5.15a2.519,2.519,0,0,1-1.63-.67v-3.94a2.5,2.5,0,0,1,1.77-.93c1.24,0,1.78.94,1.78,2.66C1104.79,1478.36,1103.96,1479.29,1102.87,1479.29Zm10.1,1.93a4.723,4.723,0,1,0-4.31-4.69A4.359,4.359,0,0,0,1112.97,1481.22Zm0-1.92c-1.22,0-1.91-1.08-1.91-2.77s0.69-2.8,1.91-2.8,1.9,1.11,1.9,2.8S1114.18,1479.3,1112.97,1479.3Zm9.03,1.92c2.34,0,3.57-1.26,3.57-2.83,0-1.66-1.31-2.26-2.5-2.7-0.94-.36-1.82-0.6-1.82-1.25a0.959,0.959,0,0,1,1.18-.87,3.455,3.455,0,0,1,1.94.77l1.06-1.42a5.054,5.054,0,0,0-3.06-1.11c-2.02,0-3.33,1.14-3.33,2.76,0,1.48,1.31,2.17,2.45,2.61,0.94,0.36,1.87.67,1.87,1.34,0,0.56-.4.94-1.3,0.94a3.908,3.908,0,0,1-2.4-.97l-1.07,1.47A5.623,5.623,0,0,0,1122,1481.22Zm8.36,0c2.34,0,3.57-1.26,3.57-2.83,0-1.66-1.31-2.26-2.5-2.7-0.94-.36-1.82-0.6-1.82-1.25a0.959,0.959,0,0,1,1.18-.87,3.428,3.428,0,0,1,1.94.77l1.06-1.42a5.03,5.03,0,0,0-3.06-1.11c-2.02,0-3.33,1.14-3.33,2.76,0,1.48,1.31,2.17,2.45,2.61,0.94,0.36,1.87.67,1.87,1.34,0,0.56-.4.94-1.29,0.94a3.886,3.886,0,0,1-2.4-.97l-1.08,1.47A5.623,5.623,0,0,0,1130.36,1481.22Zm5.76-.22h2.34v-8.96h-2.34V1481Zm1.19-10.4a1.3,1.3,0,0,0,1.39-1.28,1.406,1.406,0,0,0-2.8,0A1.31,1.31,0,0,0,1137.31,1470.6Zm8.53,10.62c1.97,0,3.81-1.77,3.81-4.86,0-2.74-1.33-4.55-3.54-4.55a3.775,3.775,0,0,0-2.48,1.08l0.05-1.45v-3.21h-2.34V1481h1.84l0.21-.94h0.05A3.471,3.471,0,0,0,1145.84,1481.22Zm-0.53-1.93a2.5,2.5,0,0,1-1.63-.67v-3.94a2.485,2.485,0,0,1,1.77-.93c1.23,0,1.78.94,1.78,2.66C1147.23,1478.36,1146.4,1479.29,1145.31,1479.29Zm6.29,1.71h2.34v-8.96h-2.34V1481Zm1.18-10.4a1.313,1.313,0,0,0,1.4-1.28,1.406,1.406,0,0,0-2.8,0A1.307,1.307,0,0,0,1152.78,1470.6Zm6.23,10.62a3.24,3.24,0,0,0,1.21-.2l-0.29-1.75a1.393,1.393,0,0,1-.32.03c-0.22,0-.48-0.17-0.48-0.7v-10.37h-2.33v10.26C1156.8,1480.15,1157.37,1481.22,1159.01,1481.22Zm3.08-.22h2.33v-8.96h-2.33V1481Zm1.18-10.4a1.3,1.3,0,0,0,1.39-1.28,1.406,1.406,0,0,0-2.8,0A1.316,1.316,0,0,0,1163.27,1470.6Zm7.35,10.62a5.789,5.789,0,0,0,1.89-.33l-0.38-1.71a2.759,2.759,0,0,1-.88.19c-0.8,0-1.22-.48-1.22-1.51v-3.97h2.21v-1.85h-2.21v-2.4h-1.97l-0.27,2.4-1.38.11v1.74h1.27v3.97C1167.68,1479.88,1168.5,1481.22,1170.62,1481.22Zm5.1,3.38c2,0,2.96-1.21,3.75-3.33l3.18-9.23h-2.25l-1.24,4.16c-0.2.83-.43,1.7-0.64,2.53h-0.08c-0.25-.87-0.48-1.73-0.75-2.53l-1.42-4.16h-2.37l3.49,8.8-0.16.53a1.724,1.724,0,0,1-1.68,1.36,2.362,2.362,0,0,1-.63-0.11l-0.43,1.81A3.835,3.835,0,0,0,1175.72,1484.6Zm12.86-3.6h2.34v-8.96h-2.34V1481Zm1.18-10.4a1.313,1.313,0,0,0,1.4-1.28,1.411,1.411,0,0,0-2.81,0A1.316,1.316,0,0,0,1189.76,1470.6Zm6.64,10.62c2.33,0,3.57-1.26,3.57-2.83,0-1.66-1.32-2.26-2.5-2.7-0.94-.36-1.83-0.6-1.83-1.25a0.969,0.969,0,0,1,1.19-.87,3.455,3.455,0,0,1,1.94.77l1.05-1.42a5,5,0,0,0-3.05-1.11c-2.02,0-3.33,1.14-3.33,2.76,0,1.48,1.31,2.17,2.44,2.61,0.95,0.36,1.88.67,1.88,1.34,0,0.56-.4.94-1.3,0.94a3.908,3.908,0,0,1-2.4-.97l-1.07,1.47A5.623,5.623,0,0,0,1196.4,1481.22Zm12.73,0a3.605,3.605,0,0,0,2.87-1.5h0.06l0.18,1.28h1.92v-8.96h-2.35v6.05a2.166,2.166,0,0,1-1.83,1.12c-0.86,0-1.25-.48-1.25-1.88v-5.29h-2.35v5.6C1206.38,1479.88,1207.21,1481.22,1209.13,1481.22Zm7.58-.22h2.34v-6.16a2.567,2.567,0,0,1,1.87-1.01c0.88,0,1.27.5,1.27,1.87v5.3h2.35v-5.59c0-2.25-.83-3.6-2.77-3.6a4.1,4.1,0,0,0-2.91,1.41h-0.07l-0.16-1.18h-1.92V1481Zm12.46,0.22a3.24,3.24,0,0,0,1.21-.2l-0.28-1.75a1.438,1.438,0,0,1-.32.03c-0.23,0-.48-0.17-0.48-0.7v-10.37h-2.34v10.26C1226.96,1480.15,1227.54,1481.22,1229.17,1481.22Zm3.08-.22h2.34v-8.96h-2.34V1481Zm1.18-10.4a1.313,1.313,0,0,0,1.4-1.28,1.411,1.411,0,0,0-2.81,0A1.316,1.316,0,0,0,1233.43,1470.6Zm4.04,10.4h2.33v-6.16a2.635,2.635,0,0,1,1.73-1.01c0.85,0,1.25.5,1.25,1.87v5.3h2.35v-6.16a2.635,2.635,0,0,1,1.73-1.01c0.85,0,1.25.5,1.25,1.87v5.3h2.35v-5.59c0-2.25-.88-3.6-2.78-3.6a4,4,0,0,0-2.85,1.57,2.449,2.449,0,0,0-2.47-1.57,3.765,3.765,0,0,0-2.75,1.43h-0.06l-0.16-1.2h-1.92V1481Zm15.25,0h2.34v-8.96h-2.34V1481Zm1.19-10.4a1.3,1.3,0,0,0,1.39-1.28,1.406,1.406,0,0,0-2.8,0A1.31,1.31,0,0,0,1253.91,1470.6Zm7.35,10.62a5.84,5.84,0,0,0,1.89-.33l-0.39-1.71a2.759,2.759,0,0,1-.88.19c-0.8,0-1.21-.48-1.21-1.51v-3.97h2.21v-1.85h-2.21v-2.4h-1.97l-0.27,2.4-1.38.11v1.74h1.26v3.97C1258.31,1479.88,1259.13,1481.22,1261.26,1481.22Zm7.83,0a5.615,5.615,0,0,0,3.13-.99l-0.8-1.44a3.7,3.7,0,0,1-2.01.63,2.353,2.353,0,0,1-2.48-2.24h5.52a4.7,4.7,0,0,0,.11-1.08c0-2.48-1.28-4.29-3.74-4.29-2.15,0-4.18,1.81-4.18,4.72A4.34,4.34,0,0,0,1269.09,1481.22Zm-2.2-5.6a2.023,2.023,0,0,1,1.96-1.98c1.15,0,1.69.77,1.69,1.98h-3.65Zm10.82,5.6a3.718,3.718,0,0,0,2.48-1.15h0.05l0.19,0.93h1.91v-12.77h-2.36v3.15l0.1,1.41a3.1,3.1,0,0,0-2.27-.98c-1.94,0-3.77,1.8-3.77,4.72S1275.48,1481.22,1277.71,1481.22Zm0.61-1.93c-1.19,0-1.86-.93-1.86-2.79,0-1.79.85-2.75,1.86-2.75a2.389,2.389,0,0,1,1.66.67v3.94A2,2,0,0,1,1278.32,1479.29Zm13.08,1.93a4.212,4.212,0,0,0,2.71-1.18h0.05l0.17,0.96h1.92v-5.23c0-2.6-1.16-3.96-3.44-3.96a7.09,7.09,0,0,0-3.74,1.19l0.85,1.55a5.052,5.052,0,0,1,2.46-.85,1.391,1.391,0,0,1,1.52,1.55c-3.6.39-5.15,1.4-5.15,3.32A2.536,2.536,0,0,0,1291.4,1481.22Zm0.77-1.84a1,1,0,0,1-1.18-1c0-.8.74-1.4,2.91-1.69v1.81A2.366,2.366,0,0,1,1292.17,1479.38Zm6.3,1.62h2.34v-6.16a2.55,2.55,0,0,1,1.87-1.01c0.88,0,1.26.5,1.26,1.87v5.3h2.36v-5.59c0-2.25-.84-3.6-2.77-3.6a4.146,4.146,0,0,0-2.92,1.41h-0.06l-0.16-1.18h-1.92V1481Zm13.46,0.22a3.7,3.7,0,0,0,2.48-1.15h0.05l0.19,0.93h1.91v-12.77h-2.35v3.15l0.09,1.41a3.087,3.087,0,0,0-2.27-.98c-1.94,0-3.76,1.8-3.76,4.72S1309.71,1481.22,1311.93,1481.22Zm0.61-1.93c-1.18,0-1.86-.93-1.86-2.79,0-1.79.85-2.75,1.86-2.75a2.429,2.429,0,0,1,1.67.67v3.94A2.013,2.013,0,0,1,1312.54,1479.29Zm13.54,1.93a3.6,3.6,0,0,0,2.86-1.5h0.07l0.17,1.28h1.92v-8.96h-2.35v6.05a2.163,2.163,0,0,1-1.82,1.12c-0.87,0-1.25-.48-1.25-1.88v-5.29h-2.36v5.6C1323.32,1479.88,1324.16,1481.22,1326.08,1481.22Zm7.58-.22h2.33v-6.16a2.585,2.585,0,0,1,1.88-1.01c0.88,0,1.26.5,1.26,1.87v5.3h2.35v-5.59c0-2.25-.83-3.6-2.77-3.6a4.142,4.142,0,0,0-2.91,1.41h-0.06l-0.16-1.18h-1.92V1481Zm10.27,3.44h2.34v-2.72l-0.07-1.47a3.347,3.347,0,0,0,2.23.97c1.97,0,3.81-1.77,3.81-4.85,0-2.75-1.31-4.56-3.52-4.56a4.2,4.2,0,0,0-2.64,1.16h-0.07l-0.16-.93h-1.92v12.4Zm3.97-5.15a2.519,2.519,0,0,1-1.63-.67v-3.94a2.5,2.5,0,0,1,1.77-.93c1.24,0,1.78.94,1.78,2.66C1349.82,1478.36,1348.99,1479.29,1347.9,1479.29Zm6.33,1.71h2.33v-5.35a2.376,2.376,0,0,1,2.07-1.76,2.749,2.749,0,0,1,.93.15l0.41-2.04a2.554,2.554,0,0,0-1.05-.19,3.113,3.113,0,0,0-2.55,1.81h-0.06l-0.16-1.58h-1.92V1481Zm11.11,0.22a5.647,5.647,0,0,0,3.14-.99l-0.8-1.44a3.7,3.7,0,0,1-2.02.63,2.353,2.353,0,0,1-2.48-2.24h5.52a4.2,4.2,0,0,0,.11-1.08c0-2.48-1.28-4.29-3.74-4.29-2.15,0-4.18,1.81-4.18,4.72A4.34,4.34,0,0,0,1365.34,1481.22Zm-2.19-5.6a2.015,2.015,0,0,1,1.95-1.98c1.15,0,1.7.77,1.7,1.98h-3.65Zm10.81,5.6a3.7,3.7,0,0,0,2.48-1.15h0.05l0.19,0.93h1.91v-12.77h-2.35v3.15l0.09,1.41a3.087,3.087,0,0,0-2.27-.98c-1.94,0-3.76,1.8-3.76,4.72S1371.74,1481.22,1373.96,1481.22Zm0.61-1.93c-1.18,0-1.85-.93-1.85-2.79,0-1.79.84-2.75,1.85-2.75a2.429,2.429,0,0,1,1.67.67v3.94A2.013,2.013,0,0,1,1374.57,1479.29Zm6.49,1.71h2.34v-8.96h-2.34V1481Zm1.19-10.4a1.3,1.3,0,0,0,1.39-1.28,1.406,1.406,0,0,0-2.8,0A1.31,1.31,0,0,0,1382.25,1470.6Zm7.85,10.62a4.459,4.459,0,0,0,2.93-1.08l-0.93-1.56a2.785,2.785,0,0,1-1.75.72c-1.29,0-2.22-1.08-2.22-2.77s0.93-2.8,2.29-2.8a2.045,2.045,0,0,1,1.38.6l1.12-1.52a3.894,3.894,0,0,0-2.61-1,4.473,4.473,0,0,0-4.58,4.72C1385.73,1479.5,1387.62,1481.22,1390.1,1481.22Zm8.03,0a5.774,5.774,0,0,0,1.88-.33l-0.38-1.71a2.759,2.759,0,0,1-.88.19c-0.8,0-1.22-.48-1.22-1.51v-3.97h2.21v-1.85h-2.21v-2.4h-1.97l-0.27,2.4-1.37.11v1.74h1.26v3.97C1395.18,1479.88,1396,1481.22,1398.13,1481.22Zm6.17,0a4.234,4.234,0,0,0,2.71-1.18h0.04l0.18,0.96h1.92v-5.23c0-2.6-1.17-3.96-3.44-3.96a7.154,7.154,0,0,0-3.75,1.19l0.85,1.55a5.053,5.053,0,0,1,2.47-.85,1.4,1.4,0,0,1,1.52,1.55c-3.6.39-5.16,1.4-5.16,3.32A2.544,2.544,0,0,0,1404.3,1481.22Zm0.77-1.84a1,1,0,0,1-1.19-1c0-.8.74-1.4,2.92-1.69v1.81A2.383,2.383,0,0,1,1405.07,1479.38Zm10.79,1.84c1.97,0,3.81-1.77,3.81-4.86,0-2.74-1.33-4.55-3.53-4.55a3.82,3.82,0,0,0-2.49,1.08l0.05-1.45v-3.21h-2.33V1481h1.84l0.2-.94h0.05A3.49,3.49,0,0,0,1415.86,1481.22Zm-0.52-1.93a2.523,2.523,0,0,1-1.64-.67v-3.94a2.521,2.521,0,0,1,1.78-.93c1.23,0,1.78.94,1.78,2.66C1417.26,1478.36,1416.42,1479.29,1415.34,1479.29Zm8.51,1.93a3.24,3.24,0,0,0,1.21-.2l-0.28-1.75a1.438,1.438,0,0,1-.32.03c-0.23,0-.48-0.17-0.48-0.7v-10.37h-2.34v10.26C1421.64,1480.15,1422.22,1481.22,1423.85,1481.22Zm6.86,0a5.647,5.647,0,0,0,3.14-.99l-0.8-1.44a3.7,3.7,0,0,1-2.02.63,2.365,2.365,0,0,1-2.48-2.24h5.53a4.7,4.7,0,0,0,.11-1.08c0-2.48-1.28-4.29-3.75-4.29a4.393,4.393,0,0,0-4.18,4.72A4.345,4.345,0,0,0,1430.71,1481.22Zm-2.19-5.6a2.021,2.021,0,0,1,1.95-1.98c1.16,0,1.7.77,1.7,1.98h-3.65Zm8.84,5.6a1.537,1.537,0,1,0-1.46-1.53A1.474,1.474,0,0,0,1437.36,1481.22Z" transform="translate(-775.094 -1028.06)"/>
</svg>
