<svg id="img_mv_copy_sp.svg" xmlns="http://www.w3.org/2000/svg" width="553.25" height="487.81" viewBox="0 0 553.25 487.81">
  <defs>
    <style>
      .cls-1 {
        fill: #fff;
        fill-rule: evenodd;
      }
    </style>
  </defs>
  <path id="SHARE_TIME_SHARE_WORK_HACOBEE_" data-name="SHARE TIME, SHARE WORK, HACOBEE " class="cls-1" d="M2418.44,1153.12c13.68,0,21.76-8.24,21.76-17.92,0-8.56-4.72-13.12-11.92-16.08l-7.76-3.28c-5.04-2-9.28-3.52-9.28-7.76,0-3.92,3.36-6.24,8.56-6.24,4.88,0,8.8,1.76,12.56,4.88l6-7.44a26.272,26.272,0,0,0-18.56-7.6c-12,0-20.48,7.44-20.48,17.12,0,8.64,6,13.44,12,15.92l7.92,3.36c5.28,2.24,8.88,3.6,8.88,8,0,4.16-3.28,6.8-9.44,6.8-5.2,0-10.8-2.64-15.04-6.56l-6.8,8.16A31.547,31.547,0,0,0,2418.44,1153.12Zm32.03-1.12h11.84v-25.6h22.4V1152h11.76v-59.2h-11.76v23.28h-22.4V1092.8h-11.84V1152Zm73.01-24.4,1.76-6.48c1.76-6.16,3.52-12.88,5.04-19.36h0.32c1.76,6.4,3.36,13.2,5.2,19.36l1.76,6.48h-14.08Zm20.8,24.4h12.4l-19.04-59.2h-13.92l-18.96,59.2h12l4.16-15.2h19.2Zm31.76-49.84h7.68c7.6,0,11.76,2.16,11.76,8.56,0,6.32-4.16,9.52-11.76,9.52h-7.68v-18.08Zm33.6,49.84-13.84-24.24c6.8-2.64,11.28-8.16,11.28-17.04,0-13.6-9.84-17.92-22.24-17.92H2564.2V1152h11.84v-22.4h8.24l12.16,22.4h13.2Zm9.43,0h37.2v-9.92h-25.36v-15.84h20.8v-9.92h-20.8v-13.68h24.48v-9.84h-36.32V1152Zm81.96,0h11.84v-49.36h16.8v-9.84h-45.28v9.84h16.64V1152Zm37.63,0h11.84v-59.2h-11.84V1152Zm25.28,0h10.64v-24.72c0-5.6-.96-13.84-1.52-19.44h0.32l4.72,13.92,9.2,24.88h6.8l9.12-24.88,4.8-13.92h0.32c-0.56,5.6-1.44,13.84-1.44,19.44V1152h10.8v-59.2h-13.12l-9.84,27.68c-1.28,3.68-2.32,7.6-3.6,11.44h-0.4c-1.2-3.84-2.32-7.76-3.6-11.44l-10.08-27.68h-13.12V1152Zm67.45,0h37.2v-9.92h-25.36v-15.84h20.8v-9.92h-20.8v-13.68h24.48v-9.84h-36.32V1152Zm49.13,17.04c9.6-3.2,15.12-10.32,15.12-19.68,0-7.28-3.04-11.6-8.48-11.6-4.16,0-7.6,2.72-7.6,6.96,0,4.48,3.52,6.96,7.36,6.96h0.72c0,4.64-3.44,8.64-9.6,10.96Zm-462.08,94.08c13.68,0,21.76-8.24,21.76-17.92,0-8.56-4.72-13.12-11.92-16.08l-7.76-3.28c-5.04-2-9.28-3.52-9.28-7.76,0-3.92,3.36-6.24,8.56-6.24,4.88,0,8.8,1.76,12.56,4.88l6-7.44a26.272,26.272,0,0,0-18.56-7.6c-12,0-20.48,7.44-20.48,17.12,0,8.64,6,13.44,12,15.92l7.92,3.36c5.28,2.24,8.88,3.6,8.88,8,0,4.16-3.28,6.8-9.44,6.8-5.2,0-10.8-2.64-15.04-6.56l-6.8,8.16A31.547,31.547,0,0,0,2418.44,1263.12Zm32.03-1.12h11.84v-25.6h22.4V1262h11.76v-59.2h-11.76v23.28h-22.4V1202.8h-11.84V1262Zm73.01-24.4,1.76-6.48c1.76-6.16,3.52-12.88,5.04-19.36h0.32c1.76,6.4,3.36,13.2,5.2,19.36l1.76,6.48h-14.08Zm20.8,24.4h12.4l-19.04-59.2h-13.92l-18.96,59.2h12l4.16-15.2h19.2Zm31.76-49.84h7.68c7.6,0,11.76,2.16,11.76,8.56,0,6.32-4.16,9.52-11.76,9.52h-7.68v-18.08Zm33.6,49.84-13.84-24.24c6.8-2.64,11.28-8.16,11.28-17.04,0-13.6-9.84-17.92-22.24-17.92H2564.2V1262h11.84v-22.4h8.24l12.16,22.4h13.2Zm9.43,0h37.2v-9.92h-25.36v-15.84h20.8v-9.92h-20.8v-13.68h24.48v-9.84h-36.32V1262Zm75.8,0h14.48l6.48-29.28c0.96-4.64,1.76-9.2,2.56-13.68h0.32c0.72,4.48,1.6,9.04,2.56,13.68l6.64,29.28h14.72l10.96-59.2h-11.28l-4.64,28.88c-0.88,6.16-1.76,12.48-2.64,18.88h-0.4c-1.28-6.4-2.48-12.8-3.76-18.88l-6.88-28.88h-10.08l-6.88,28.88c-1.28,6.16-2.56,12.56-3.76,18.88h-0.32c-0.88-6.32-1.84-12.64-2.72-18.88l-4.72-28.88h-12.08Zm90.38,1.12c15.68,0,26.48-11.76,26.48-30.96s-10.8-30.48-26.48-30.48-26.48,11.2-26.48,30.48C2758.77,1251.36,2769.57,1263.12,2785.25,1263.12Zm0-10.24c-8.8,0-14.4-8.08-14.4-20.72,0-12.72,5.6-20.32,14.4-20.32s14.4,7.6,14.4,20.32C2799.65,1244.8,2794.05,1252.88,2785.25,1252.88Zm49.98-40.72h7.68c7.6,0,11.76,2.16,11.76,8.56,0,6.32-4.16,9.52-11.76,9.52h-7.68v-18.08Zm33.6,49.84-13.84-24.24c6.8-2.64,11.28-8.16,11.28-17.04,0-13.6-9.84-17.92-22.24-17.92h-20.64V1262h11.84v-22.4h8.24l12.16,22.4h13.2Zm9.43,0h11.84v-16.64l7.77-9.92,15.28,26.56h13.04l-21.28-35.92,18.08-23.28h-13.04l-19.61,25.68h-0.24V1202.8h-11.84V1262Zm56.25,17.04c9.6-3.2,15.12-10.32,15.12-19.68,0-7.28-3.04-11.6-8.48-11.6-4.16,0-7.6,2.72-7.6,6.96,0,4.48,3.52,6.96,7.36,6.96h0.72c0,4.64-3.44,8.64-9.6,10.96ZM2400.76,1372h11.84v-25.6H2435V1372h11.76v-59.2H2435v23.28h-22.4V1312.8h-11.84V1372Zm73.01-24.4,1.76-6.48c1.76-6.16,3.52-12.88,5.04-19.36h0.32c1.76,6.4,3.36,13.2,5.2,19.36l1.76,6.48h-14.08Zm20.8,24.4h12.4l-19.04-59.2h-13.92l-18.96,59.2h12l4.16-15.2h19.2Zm41.98,1.12a23.959,23.959,0,0,0,18.88-8.72l-6.24-7.36c-3.2,3.44-7.2,5.84-12.24,5.84-9.37,0-15.45-7.76-15.45-20.64,0-12.72,6.72-20.4,15.69-20.4,4.48,0,7.92,2.08,10.88,4.96l6.24-7.52a24.149,24.149,0,0,0-17.36-7.6c-14.97,0-27.53,11.44-27.53,30.96C2509.42,1362.4,2521.58,1373.12,2536.55,1373.12Zm50.16,0c15.68,0,26.48-11.76,26.48-30.96s-10.8-30.48-26.48-30.48-26.48,11.2-26.48,30.48C2560.23,1361.36,2571.03,1373.12,2586.71,1373.12Zm0-10.24c-8.8,0-14.4-8.08-14.4-20.72,0-12.72,5.6-20.32,14.4-20.32s14.4,7.6,14.4,20.32C2601.11,1354.8,2595.51,1362.88,2586.71,1362.88Zm38.15,9.12h21.12c13.04,0,22.96-5.52,22.96-17.44,0-8-4.72-12.48-11.12-14v-0.4c5.04-1.76,8.08-7.36,8.08-12.8,0-11.04-9.28-14.56-21.44-14.56h-19.6V1372Zm11.84-35.12v-15.04h7.04c7.12,0,10.64,2.08,10.64,7.28,0,4.72-3.28,7.76-10.8,7.76h-6.88Zm0,26v-17.2h8.24c8.16,0,12.48,2.4,12.48,8.16,0,6.16-4.4,9.04-12.48,9.04h-8.24Zm42.27,9.12h37.2v-9.92h-25.36v-15.84h20.8v-9.92h-20.8v-13.68h24.48v-9.84h-36.32V1372Zm48.01,0h37.21v-9.92h-25.37v-15.84h20.81v-9.92h-20.81v-13.68h24.49v-9.84h-36.33V1372Z" transform="translate(-2396.38 -1091.69)"/>
  <path id="Things_beyond_reality." data-name="Things beyond reality." class="cls-1" d="M2406,1465h5.92v-24.68h8.4v-4.91h-22.64v4.91H2406V1465Zm18.84,0h5.84v-15.4c1.68-1.64,2.84-2.52,4.68-2.52,2.2,0,3.16,1.24,3.16,4.68V1465h5.88v-13.96c0-5.64-2.08-9-6.92-9-3.04,0-5.24,1.6-7.04,3.28l0.24-4.2v-8.03h-5.84V1465Zm26.32,0H2457v-22.4h-5.84V1465Zm2.96-25.99a3.256,3.256,0,0,0,3.48-3.2,3.514,3.514,0,0,0-7,0A3.268,3.268,0,0,0,2454.12,1439.01Zm9.28,25.99h5.84v-15.4c1.68-1.64,2.84-2.52,4.68-2.52,2.2,0,3.16,1.24,3.16,4.68V1465h5.88v-13.96c0-5.64-2.08-9-6.92-9-3.04,0-5.32,1.6-7.28,3.52h-0.16l-0.4-2.96h-4.8V1465Zm34.15,9.72c7.48,0,12.15-3.44,12.15-7.96,0-3.92-2.91-5.6-8.31-5.6h-3.8c-2.64,0-3.52-.64-3.52-1.84a2.231,2.231,0,0,1,.96-1.92,9.54,9.54,0,0,0,2.88.52c4.8,0,8.64-2.56,8.64-7.6a5.636,5.636,0,0,0-1.04-3.4h3.83v-4.32h-8.07a10.537,10.537,0,0,0-3.36-.56c-4.76,0-9.04,2.84-9.04,8.12a7.4,7.4,0,0,0,2.96,5.84v0.16a5.559,5.559,0,0,0-2.48,4.2,4.246,4.246,0,0,0,2.04,3.76v0.2c-2.04,1.16-3.2,2.76-3.2,4.64C2488.19,1472.92,2492.27,1474.72,2497.55,1474.72Zm0.36-20.44c-1.96,0-3.52-1.48-3.52-4.12s1.52-4.12,3.52-4.12,3.48,1.48,3.48,4.12S2499.87,1454.28,2497.91,1454.28Zm0.52,16.72c-3.28,0-5.36-1.08-5.36-2.96a3.36,3.36,0,0,1,1.48-2.6,12.642,12.642,0,0,0,3.12.32h2.72c2.4,0,3.72.4,3.72,2C2504.11,1469.52,2501.79,1471,2498.43,1471Zm22.31-5.44c5.84,0,8.92-3.16,8.92-7.08,0-4.16-3.28-5.64-6.24-6.76-2.36-.88-4.56-1.48-4.56-3.12,0-1.28.96-2.16,2.96-2.16a8.623,8.623,0,0,1,4.84,1.92l2.64-3.56a12.538,12.538,0,0,0-7.64-2.76c-5.04,0-8.32,2.84-8.32,6.88,0,3.72,3.28,5.44,6.12,6.52,2.36,0.92,4.68,1.68,4.68,3.36,0,1.4-1,2.36-3.24,2.36a9.725,9.725,0,0,1-6-2.44l-2.68,3.68A14.114,14.114,0,0,0,2520.74,1465.56Zm35.44,0c4.92,0,9.52-4.44,9.52-12.16,0-6.84-3.32-11.36-8.84-11.36a9.557,9.557,0,0,0-6.2,2.68l0.12-3.6v-8.03h-5.84V1465h4.6l0.52-2.36h0.12A8.716,8.716,0,0,0,2556.18,1465.56Zm-1.32-4.84a6.192,6.192,0,0,1-4.08-1.68v-9.84c1.56-1.56,2.92-2.32,4.44-2.32,3.08,0,4.44,2.36,4.44,6.64C2559.66,1458.4,2557.58,1460.72,2554.86,1460.72Zm26.31,4.84a14.13,14.13,0,0,0,7.84-2.48l-2-3.6a9.233,9.233,0,0,1-5.04,1.56c-3.32,0-5.72-1.92-6.2-5.6h13.8a10.927,10.927,0,0,0,.28-2.68c0-6.2-3.2-10.72-9.36-10.72-5.36,0-10.44,4.52-10.44,11.8C2570.05,1461.2,2574.93,1465.56,2581.17,1465.56Zm-5.48-14c0.44-3.28,2.52-4.96,4.88-4.96,2.88,0,4.24,1.92,4.24,4.96h-9.12Zm20.48,22.44c5,0,7.4-3.04,9.36-8.32l7.95-23.08h-5.63l-3.08,10.4c-0.52,2.08-1.08,4.24-1.6,6.32h-0.2c-0.64-2.16-1.2-4.32-1.88-6.32l-3.56-10.4h-5.92l8.72,22-0.4,1.32c-0.64,1.96-1.92,3.4-4.2,3.4a6.024,6.024,0,0,1-1.56-.28l-1.08,4.52A9.485,9.485,0,0,0,2596.17,1474Zm30.06-8.44c5.6,0,10.76-4.32,10.76-11.72,0-7.48-5.16-11.8-10.76-11.8s-10.76,4.32-10.76,11.8C2615.47,1461.24,2620.63,1465.56,2626.23,1465.56Zm0-4.8c-3.04,0-4.76-2.72-4.76-6.92,0-4.24,1.72-7,4.76-7s4.76,2.76,4.76,7C2630.99,1458.04,2629.27,1460.76,2626.23,1460.76Zm16.06,4.24h5.84v-15.4c1.68-1.64,2.84-2.52,4.68-2.52,2.2,0,3.16,1.24,3.16,4.68V1465h5.87v-13.96c0-5.64-2.08-9-6.91-9-3.04,0-5.32,1.6-7.28,3.52h-0.16l-0.4-2.96h-4.8V1465Zm34.36,0.56a9.291,9.291,0,0,0,6.2-2.88h0.12l0.48,2.32h4.75v-31.91h-5.87v7.87l0.24,3.52a7.71,7.71,0,0,0-5.68-2.44c-4.84,0-9.4,4.48-9.4,11.8S2671.09,1465.56,2676.65,1465.56Zm1.52-4.84c-2.96,0-4.64-2.32-4.64-6.96,0-4.48,2.12-6.88,4.64-6.88a5.951,5.951,0,0,1,4.16,1.68v9.84A4.983,4.983,0,0,1,2678.17,1460.72Zm27.2,4.28h5.84v-13.36c1.28-3.24,3.4-4.4,5.16-4.4a7.06,7.06,0,0,1,2.32.36l1.04-5.08a6.337,6.337,0,0,0-2.64-.48c-2.32,0-4.72,1.6-6.36,4.52h-0.16l-0.4-3.96h-4.8V1465Zm26.97,0.56a14.13,14.13,0,0,0,7.84-2.48l-2-3.6a9.233,9.233,0,0,1-5.04,1.56c-3.32,0-5.72-1.92-6.2-5.6h13.8a10.927,10.927,0,0,0,.28-2.68c0-6.2-3.2-10.72-9.36-10.72-5.36,0-10.44,4.52-10.44,11.8C2721.22,1461.2,2726.1,1465.56,2732.34,1465.56Zm-5.48-14c0.44-3.28,2.52-4.96,4.88-4.96,2.88,0,4.24,1.92,4.24,4.96h-9.12Zm24.38,14a10.533,10.533,0,0,0,6.76-2.96h0.12l0.44,2.4h4.8v-13.08c0-6.48-2.92-9.88-8.6-9.88a17.9,17.9,0,0,0-9.36,2.96l2.12,3.88a12.656,12.656,0,0,1,6.16-2.12c2.76,0,3.72,1.68,3.8,3.88-9,.96-12.88,3.48-12.88,8.28A6.363,6.363,0,0,0,2751.24,1465.56Zm1.92-4.6c-1.72,0-2.96-.76-2.96-2.52,0-2,1.84-3.48,7.28-4.2v4.52C2756.08,1460.16,2754.84,1460.96,2753.16,1460.96Zm22.39,4.6a8.007,8.007,0,0,0,3.04-.52l-0.72-4.36a3.314,3.314,0,0,1-.8.08c-0.56,0-1.2-.44-1.2-1.76v-25.91h-5.84v25.63C2770.03,1462.88,2771.47,1465.56,2775.55,1465.56Zm7.9-.56h5.84v-22.4h-5.84V1465Zm2.96-25.99a3.256,3.256,0,0,0,3.48-3.2,3.514,3.514,0,0,0-7,0A3.268,3.268,0,0,0,2786.41,1439.01Zm17.58,26.55a14.476,14.476,0,0,0,4.72-.84l-0.96-4.28a6.545,6.545,0,0,1-2.2.48c-2,0-3.04-1.2-3.04-3.76v-9.92h5.52v-4.64h-5.52v-5.99h-4.92l-0.68,5.99-3.44.28v4.36h3.16v9.92C2796.63,1462.2,2798.67,1465.56,2803.99,1465.56Zm11.98,8.44c5,0,7.4-3.04,9.36-8.32l7.95-23.08h-5.63l-3.08,10.4c-0.52,2.08-1.08,4.24-1.6,6.32h-0.2c-0.64-2.16-1.2-4.32-1.88-6.32l-3.56-10.4h-5.92l8.72,22-0.4,1.32c-0.64,1.96-1.92,3.4-4.2,3.4a6.024,6.024,0,0,1-1.56-.28l-1.08,4.52A9.485,9.485,0,0,0,2815.97,1474Zm22.66-8.44a3.845,3.845,0,1,0-3.64-3.84A3.684,3.684,0,0,0,2838.63,1465.56Z" transform="translate(-2396.38 -1091.69)"/>
  <path id="Your_unusual_idea_could_become_the_standard_of_tomorrow._Let_" data-name="Your unusual idea could become  the standard of tomorrow.  Let’" class="cls-1" d="M2400.8,1503h2.96v-5.42l4.46-9.38h-3.08l-1.48,3.6c-0.42,1.1-.86,2.14-1.32,3.28h-0.08c-0.46-1.14-.86-2.18-1.28-3.28l-1.48-3.6h-3.14l4.44,9.38V1503Zm13.28,0.28c2.8,0,5.38-2.16,5.38-5.86,0-3.74-2.58-5.9-5.38-5.9s-5.38,2.16-5.38,5.9C2408.7,1501.12,2411.28,1503.28,2414.08,1503.28Zm0-2.4c-1.52,0-2.38-1.36-2.38-3.46,0-2.12.86-3.5,2.38-3.5s2.38,1.38,2.38,3.5C2416.46,1499.52,2415.6,1500.88,2414.08,1500.88Zm11.96,2.4a4.5,4.5,0,0,0,3.58-1.88h0.08l0.22,1.6h2.4v-11.2h-2.94v7.56a2.7,2.7,0,0,1-2.28,1.4c-1.08,0-1.56-.6-1.56-2.34v-6.62h-2.94v7C2422.6,1501.6,2423.64,1503.28,2426.04,1503.28Zm9.95-.28h2.92v-6.68c0.64-1.62,1.7-2.2,2.58-2.2a3.53,3.53,0,0,1,1.16.18l0.52-2.54a3.168,3.168,0,0,0-1.32-.24,3.88,3.88,0,0,0-3.18,2.26h-0.08l-0.2-1.98h-2.4V1503Zm18.12,0.28a4.5,4.5,0,0,0,3.58-1.88h0.08l0.22,1.6h2.4v-11.2h-2.94v7.56a2.7,2.7,0,0,1-2.28,1.4c-1.08,0-1.56-.6-1.56-2.34v-6.62h-2.94v7C2450.67,1501.6,2451.71,1503.28,2454.11,1503.28Zm9.95-.28h2.92v-7.7a3.218,3.218,0,0,1,2.34-1.26c1.1,0,1.58.62,1.58,2.34V1503h2.94v-6.98c0-2.82-1.04-4.5-3.46-4.5a5.162,5.162,0,0,0-3.64,1.76h-0.08l-0.2-1.48h-2.4V1503Zm16.63,0.28a4.5,4.5,0,0,0,3.58-1.88h0.08l0.22,1.6h2.4v-11.2h-2.94v7.56a2.7,2.7,0,0,1-2.28,1.4c-1.08,0-1.56-.6-1.56-2.34v-6.62h-2.94v7C2477.25,1501.6,2478.29,1503.28,2480.69,1503.28Zm13.2,0c2.92,0,4.46-1.58,4.46-3.54,0-2.08-1.64-2.82-3.12-3.38-1.18-.44-2.28-0.74-2.28-1.56,0-.64.48-1.08,1.48-1.08a4.312,4.312,0,0,1,2.42.96l1.32-1.78a6.269,6.269,0,0,0-3.82-1.38c-2.52,0-4.16,1.42-4.16,3.44,0,1.86,1.64,2.72,3.06,3.26,1.18,0.46,2.34.84,2.34,1.68,0,0.7-.5,1.18-1.62,1.18a4.862,4.862,0,0,1-3-1.22l-1.34,1.84A7.057,7.057,0,0,0,2493.89,1503.28Zm10.5,0a4.5,4.5,0,0,0,3.58-1.88h0.08l0.22,1.6h2.4v-11.2h-2.94v7.56a2.7,2.7,0,0,1-2.28,1.4c-1.08,0-1.56-.6-1.56-2.34v-6.62h-2.94v7C2500.95,1501.6,2501.99,1503.28,2504.39,1503.28Zm12.67,0a5.266,5.266,0,0,0,3.38-1.48h0.06l0.22,1.2h2.4v-6.54c0-3.24-1.46-4.94-4.3-4.94a9.012,9.012,0,0,0-4.69,1.48l1.06,1.94a6.4,6.4,0,0,1,3.09-1.06,1.745,1.745,0,0,1,1.9,1.94c-4.5.48-6.45,1.74-6.45,4.14A3.184,3.184,0,0,0,2517.06,1503.28Zm0.96-2.3a1.255,1.255,0,0,1-1.48-1.26c0-1,.92-1.74,3.64-2.1v2.26A2.969,2.969,0,0,1,2518.02,1500.98Zm11.31,2.3a4,4,0,0,0,1.52-.26l-0.36-2.18a1.657,1.657,0,0,1-.4.04c-0.28,0-.6-0.22-0.6-0.88v-12.96h-2.92v12.82C2526.57,1501.94,2527.29,1503.28,2529.33,1503.28Zm9.04-.28h2.92v-11.2h-2.92V1503Zm1.48-13a1.628,1.628,0,0,0,1.74-1.6,1.757,1.757,0,0,0-3.5,0A1.634,1.634,0,0,0,2539.85,1490Zm8.73,13.28a4.645,4.645,0,0,0,3.1-1.44h0.06l0.24,1.16h2.38v-15.96h-2.94v3.94l0.12,1.76a3.855,3.855,0,0,0-2.84-1.22c-2.42,0-4.7,2.24-4.7,5.9S2545.8,1503.28,2548.58,1503.28Zm0.76-2.42c-1.48,0-2.32-1.16-2.32-3.48,0-2.24,1.06-3.44,2.32-3.44a2.976,2.976,0,0,1,2.08.84v4.92A2.491,2.491,0,0,1,2549.34,1500.86Zm13.49,2.42a7.065,7.065,0,0,0,3.92-1.24l-1-1.8a4.616,4.616,0,0,1-2.52.78,2.943,2.943,0,0,1-3.1-2.8h6.9a5.464,5.464,0,0,0,.14-1.34c0-3.1-1.6-5.36-4.68-5.36-2.68,0-5.22,2.26-5.22,5.9C2557.27,1501.1,2559.71,1503.28,2562.83,1503.28Zm-2.74-7a2.525,2.525,0,0,1,2.44-2.48c1.44,0,2.12.96,2.12,2.48h-4.56Zm12.82,7a5.266,5.266,0,0,0,3.38-1.48h0.06l0.22,1.2h2.4v-6.54c0-3.24-1.46-4.94-4.3-4.94a8.947,8.947,0,0,0-4.68,1.48l1.06,1.94a6.328,6.328,0,0,1,3.08-1.06,1.745,1.745,0,0,1,1.9,1.94c-4.5.48-6.44,1.74-6.44,4.14A3.181,3.181,0,0,0,2572.91,1503.28Zm0.96-2.3a1.255,1.255,0,0,1-1.48-1.26c0-1,.92-1.74,3.64-2.1v2.26A2.969,2.969,0,0,1,2573.87,1500.98Zm18.84,2.3a5.556,5.556,0,0,0,3.66-1.36l-1.16-1.94a3.478,3.478,0,0,1-2.18.9c-1.62,0-2.78-1.36-2.78-3.46,0-2.12,1.16-3.5,2.86-3.5a2.557,2.557,0,0,1,1.72.74l1.4-1.9a4.9,4.9,0,0,0-3.26-1.24,5.592,5.592,0,0,0-5.72,5.9C2587.25,1501.12,2589.61,1503.28,2592.71,1503.28Zm10.96,0c2.8,0,5.38-2.16,5.38-5.86,0-3.74-2.58-5.9-5.38-5.9s-5.38,2.16-5.38,5.9C2598.29,1501.12,2600.87,1503.28,2603.67,1503.28Zm0-2.4c-1.52,0-2.38-1.36-2.38-3.46,0-2.12.86-3.5,2.38-3.5s2.38,1.38,2.38,3.5C2606.05,1499.52,2605.19,1500.88,2603.67,1500.88Zm11.96,2.4a4.5,4.5,0,0,0,3.58-1.88h0.08l0.22,1.6h2.4v-11.2h-2.94v7.56a2.7,2.7,0,0,1-2.28,1.4c-1.08,0-1.56-.6-1.56-2.34v-6.62h-2.94v7C2612.19,1501.6,2613.23,1503.28,2615.63,1503.28Zm12.7,0a4,4,0,0,0,1.52-.26l-0.36-2.18a1.657,1.657,0,0,1-.4.04c-0.28,0-.6-0.22-0.6-0.88v-12.96h-2.92v12.82C2625.57,1501.94,2626.29,1503.28,2628.33,1503.28Zm7.42,0a4.645,4.645,0,0,0,3.1-1.44h0.06l0.24,1.16h2.38v-15.96h-2.94v3.94l0.12,1.76a3.855,3.855,0,0,0-2.84-1.22c-2.42,0-4.71,2.24-4.71,5.9S2632.97,1503.28,2635.75,1503.28Zm0.76-2.42c-1.48,0-2.32-1.16-2.32-3.48,0-2.24,1.06-3.44,2.32-3.44a2.976,2.976,0,0,1,2.08.84v4.92A2.491,2.491,0,0,1,2636.51,1500.86Zm19.72,2.42c2.46,0,4.76-2.22,4.76-6.08,0-3.42-1.66-5.68-4.42-5.68a4.778,4.778,0,0,0-3.1,1.34l0.06-1.8v-4.02h-2.93V1503h2.31l0.26-1.18h0.06A4.358,4.358,0,0,0,2656.23,1503.28Zm-0.66-2.42a3.1,3.1,0,0,1-2.04-.84v-4.92a3.158,3.158,0,0,1,2.22-1.16c1.54,0,2.22,1.18,2.22,3.32C2657.97,1499.7,2656.93,1500.86,2655.57,1500.86Zm13.27,2.42a7.065,7.065,0,0,0,3.92-1.24l-1-1.8a4.616,4.616,0,0,1-2.52.78,2.943,2.943,0,0,1-3.1-2.8h6.9a5.464,5.464,0,0,0,.14-1.34c0-3.1-1.6-5.36-4.68-5.36-2.68,0-5.22,2.26-5.22,5.9C2663.28,1501.1,2665.72,1503.28,2668.84,1503.28Zm-2.74-7a2.525,2.525,0,0,1,2.44-2.48c1.44,0,2.12.96,2.12,2.48h-4.56Zm15.05,7a5.556,5.556,0,0,0,3.66-1.36l-1.16-1.94a3.478,3.478,0,0,1-2.18.9c-1.62,0-2.78-1.36-2.78-3.46,0-2.12,1.16-3.5,2.86-3.5a2.557,2.557,0,0,1,1.72.74l1.4-1.9a4.9,4.9,0,0,0-3.26-1.24,5.592,5.592,0,0,0-5.72,5.9C2675.69,1501.12,2678.05,1503.28,2681.15,1503.28Zm10.95,0c2.8,0,5.38-2.16,5.38-5.86,0-3.74-2.58-5.9-5.38-5.9s-5.38,2.16-5.38,5.9C2686.72,1501.12,2689.3,1503.28,2692.1,1503.28Zm0-2.4c-1.52,0-2.38-1.36-2.38-3.46,0-2.12.86-3.5,2.38-3.5s2.38,1.38,2.38,3.5C2694.48,1499.52,2693.62,1500.88,2692.1,1500.88Zm8.65,2.12h2.93v-7.7a3.268,3.268,0,0,1,2.16-1.26c1.06,0,1.56.62,1.56,2.34V1503h2.94v-7.7a3.268,3.268,0,0,1,2.16-1.26c1.06,0,1.56.62,1.56,2.34V1503H2717v-6.98c0-2.82-1.1-4.5-3.48-4.5a4.967,4.967,0,0,0-3.56,1.96,3.048,3.048,0,0,0-3.08-1.96,4.716,4.716,0,0,0-3.44,1.78h-0.08l-0.2-1.5h-2.41V1503Zm24.24,0.28a7.065,7.065,0,0,0,3.92-1.24l-1-1.8a4.616,4.616,0,0,1-2.52.78,2.943,2.943,0,0,1-3.1-2.8h6.9a5.464,5.464,0,0,0,.14-1.34c0-3.1-1.6-5.36-4.68-5.36-2.68,0-5.22,2.26-5.22,5.9C2719.43,1501.1,2721.87,1503.28,2724.99,1503.28Zm-2.74-7a2.525,2.525,0,0,1,2.44-2.48c1.44,0,2.12.96,2.12,2.48h-4.56Zm-320.09,31a7.238,7.238,0,0,0,2.36-.42l-0.48-2.14a3.272,3.272,0,0,1-1.1.24c-1,0-1.52-.6-1.52-1.88v-4.96h2.76v-2.32h-2.76v-3h-2.46l-0.34,3-1.72.14v2.18h1.58v4.96C2398.48,1525.6,2399.5,1527.28,2402.16,1527.28Zm4.32-.28h2.92v-7.7a3.218,3.218,0,0,1,2.34-1.26c1.1,0,1.58.62,1.58,2.34V1527h2.94v-6.98c0-2.82-1.04-4.5-3.46-4.5a5.1,5.1,0,0,0-3.52,1.64l0.12-2.1v-4.02h-2.92V1527Zm18.23,0.28a7.065,7.065,0,0,0,3.92-1.24l-1-1.8a4.616,4.616,0,0,1-2.52.78,2.943,2.943,0,0,1-3.1-2.8h6.9a5.464,5.464,0,0,0,.14-1.34c0-3.1-1.6-5.36-4.68-5.36-2.68,0-5.22,2.26-5.22,5.9C2419.15,1525.1,2421.59,1527.28,2424.71,1527.28Zm-2.74-7a2.525,2.525,0,0,1,2.44-2.48c1.44,0,2.12.96,2.12,2.48h-4.56Zm18.88,7c2.92,0,4.46-1.58,4.46-3.54,0-2.08-1.64-2.82-3.12-3.38-1.18-.44-2.28-0.74-2.28-1.56,0-.64.48-1.08,1.48-1.08a4.312,4.312,0,0,1,2.42.96l1.32-1.78a6.269,6.269,0,0,0-3.82-1.38c-2.52,0-4.16,1.42-4.16,3.44,0,1.86,1.64,2.72,3.06,3.26,1.18,0.46,2.34.84,2.34,1.68,0,0.7-.5,1.18-1.62,1.18a4.862,4.862,0,0,1-3-1.22l-1.34,1.84A7.057,7.057,0,0,0,2440.85,1527.28Zm11.49,0a7.238,7.238,0,0,0,2.36-.42l-0.48-2.14a3.272,3.272,0,0,1-1.1.24c-1,0-1.52-.6-1.52-1.88v-4.96h2.76v-2.32h-2.76v-3h-2.46l-0.34,3-1.72.14v2.18h1.58v4.96C2448.66,1525.6,2449.68,1527.28,2452.34,1527.28Zm6.94,0a5.266,5.266,0,0,0,3.38-1.48h0.06l0.22,1.2h2.4v-6.54c0-3.24-1.46-4.94-4.3-4.94a8.947,8.947,0,0,0-4.68,1.48l1.06,1.94a6.328,6.328,0,0,1,3.08-1.06,1.745,1.745,0,0,1,1.9,1.94c-4.5.48-6.44,1.74-6.44,4.14A3.181,3.181,0,0,0,2459.28,1527.28Zm0.96-2.3a1.255,1.255,0,0,1-1.48-1.26c0-1,.92-1.74,3.64-2.1v2.26A2.969,2.969,0,0,1,2460.24,1524.98Zm8.6,2.02h2.92v-7.7a3.218,3.218,0,0,1,2.34-1.26c1.1,0,1.58.62,1.58,2.34V1527h2.94v-6.98c0-2.82-1.04-4.5-3.46-4.5a5.162,5.162,0,0,0-3.64,1.76h-0.08l-0.2-1.48h-2.4V1527Zm17.3,0.28a4.645,4.645,0,0,0,3.1-1.44h0.06l0.24,1.16h2.38v-15.96h-2.94v3.94l0.12,1.76a3.855,3.855,0,0,0-2.84-1.22c-2.42,0-4.7,2.24-4.7,5.9S2483.36,1527.28,2486.14,1527.28Zm0.76-2.42c-1.48,0-2.32-1.16-2.32-3.48,0-2.24,1.06-3.44,2.32-3.44a2.976,2.976,0,0,1,2.08.84v4.92A2.491,2.491,0,0,1,2486.9,1524.86Zm11.29,2.42a5.266,5.266,0,0,0,3.38-1.48h0.06l0.22,1.2h2.4v-6.54c0-3.24-1.46-4.94-4.3-4.94a9.012,9.012,0,0,0-4.69,1.48l1.06,1.94a6.4,6.4,0,0,1,3.09-1.06,1.745,1.745,0,0,1,1.9,1.94c-4.5.48-6.45,1.74-6.45,4.14A3.184,3.184,0,0,0,2498.19,1527.28Zm0.96-2.3a1.255,1.255,0,0,1-1.48-1.26c0-1,.92-1.74,3.64-2.1v2.26A2.969,2.969,0,0,1,2499.15,1524.98Zm8.59,2.02h2.92v-6.68c0.64-1.62,1.7-2.2,2.58-2.2a3.53,3.53,0,0,1,1.16.18l0.52-2.54a3.168,3.168,0,0,0-1.32-.24,3.88,3.88,0,0,0-3.18,2.26h-0.08l-0.2-1.98h-2.4V1527Zm13.2,0.28a4.645,4.645,0,0,0,3.1-1.44h0.06l0.24,1.16h2.38v-15.96h-2.94v3.94l0.12,1.76a3.855,3.855,0,0,0-2.84-1.22c-2.42,0-4.7,2.24-4.7,5.9S2518.16,1527.28,2520.94,1527.28Zm0.76-2.42c-1.48,0-2.32-1.16-2.32-3.48,0-2.24,1.06-3.44,2.32-3.44a2.976,2.976,0,0,1,2.08.84v4.92A2.491,2.491,0,0,1,2521.7,1524.86Zm18.78,2.42c2.8,0,5.38-2.16,5.38-5.86,0-3.74-2.58-5.9-5.38-5.9s-5.38,2.16-5.38,5.9C2535.1,1525.12,2537.68,1527.28,2540.48,1527.28Zm0-2.4c-1.52,0-2.38-1.36-2.38-3.46,0-2.12.86-3.5,2.38-3.5s2.38,1.38,2.38,3.5C2542.86,1523.52,2542,1524.88,2540.48,1524.88Zm15.06-13.72a5.872,5.872,0,0,0-2.12-.4c-2.82,0-3.91,1.8-3.91,4.14v0.92l-1.5.12v2.18h1.5V1527h2.95v-8.88h2.1v-2.32h-2.1v-0.96c0-1.24.48-1.76,1.36-1.76a3.65,3.65,0,0,1,1.18.24Zm10.38,16.12a7.238,7.238,0,0,0,2.36-.42l-0.48-2.14a3.272,3.272,0,0,1-1.1.24c-1,0-1.52-.6-1.52-1.88v-4.96h2.76v-2.32h-2.76v-3h-2.47l-0.34,3-1.72.14v2.18h1.58v4.96C2562.23,1525.6,2563.26,1527.28,2565.92,1527.28Zm8.82,0c2.8,0,5.38-2.16,5.38-5.86,0-3.74-2.58-5.9-5.38-5.9s-5.38,2.16-5.38,5.9C2569.36,1525.12,2571.94,1527.28,2574.74,1527.28Zm0-2.4c-1.52,0-2.38-1.36-2.38-3.46,0-2.12.86-3.5,2.38-3.5s2.38,1.38,2.38,3.5C2577.12,1523.52,2576.26,1524.88,2574.74,1524.88Zm8.65,2.12h2.93v-7.7a3.268,3.268,0,0,1,2.16-1.26c1.06,0,1.56.62,1.56,2.34V1527h2.94v-7.7a3.268,3.268,0,0,1,2.16-1.26c1.06,0,1.56.62,1.56,2.34V1527h2.94v-6.98c0-2.82-1.1-4.5-3.48-4.5a4.967,4.967,0,0,0-3.56,1.96,3.048,3.048,0,0,0-3.08-1.96,4.716,4.716,0,0,0-3.44,1.78H2586l-0.2-1.5h-2.41V1527Zm24.06,0.28c2.8,0,5.38-2.16,5.38-5.86,0-3.74-2.58-5.9-5.38-5.9s-5.38,2.16-5.38,5.9C2602.07,1525.12,2604.65,1527.28,2607.45,1527.28Zm0-2.4c-1.52,0-2.38-1.36-2.38-3.46,0-2.12.86-3.5,2.38-3.5s2.38,1.38,2.38,3.5C2609.83,1523.52,2608.97,1524.88,2607.45,1524.88Zm8.65,2.12h2.93v-6.68c0.64-1.62,1.7-2.2,2.58-2.2a3.53,3.53,0,0,1,1.16.18l0.52-2.54a3.168,3.168,0,0,0-1.32-.24,3.88,3.88,0,0,0-3.18,2.26h-0.08l-0.2-1.98h-2.41V1527Zm9.45,0h2.92v-6.68c0.64-1.62,1.7-2.2,2.58-2.2a3.53,3.53,0,0,1,1.16.18l0.52-2.54a3.168,3.168,0,0,0-1.32-.24,3.88,3.88,0,0,0-3.18,2.26h-0.08l-0.2-1.98h-2.4V1527Zm13.94,0.28c2.8,0,5.38-2.16,5.38-5.86,0-3.74-2.58-5.9-5.38-5.9s-5.38,2.16-5.38,5.9C2634.11,1525.12,2636.69,1527.28,2639.49,1527.28Zm0-2.4c-1.52,0-2.38-1.36-2.38-3.46,0-2.12.86-3.5,2.38-3.5s2.38,1.38,2.38,3.5C2641.87,1523.52,2641.01,1524.88,2639.49,1524.88Zm10.22,2.12h3.36l1.14-4.88c0.24-1.04.4-2.08,0.62-3.26h0.1c0.22,1.18.4,2.2,0.64,3.26l1.18,4.88h3.47l2.76-11.2h-2.72l-1.22,5.54c-0.22,1.08-.36,2.16-0.56,3.26h-0.1c-0.25-1.1-.45-2.18-0.71-3.26l-1.4-5.54h-2.62l-1.34,5.54c-0.28,1.06-.48,2.16-0.7,3.26h-0.08c-0.2-1.1-.34-2.18-0.56-3.26l-1.22-5.54h-2.94Zm16.46,0.28a1.923,1.923,0,1,0-1.82-1.92A1.842,1.842,0,0,0,2666.17,1527.28ZM2398.3,1551h8.96v-2.48h-6V1536.2h-2.96V1551Zm16.83,0.28a7.065,7.065,0,0,0,3.92-1.24l-1-1.8a4.616,4.616,0,0,1-2.52.78,2.943,2.943,0,0,1-3.1-2.8h6.9a5.464,5.464,0,0,0,.14-1.34c0-3.1-1.6-5.36-4.68-5.36-2.68,0-5.22,2.26-5.22,5.9C2409.57,1549.1,2412.01,1551.28,2415.13,1551.28Zm-2.74-7a2.525,2.525,0,0,1,2.44-2.48c1.44,0,2.12.96,2.12,2.48h-4.56Zm14.38,7a7.238,7.238,0,0,0,2.36-.42l-0.48-2.14a3.272,3.272,0,0,1-1.1.24c-1,0-1.52-.6-1.52-1.88v-4.96h2.76v-2.32h-2.76v-3h-2.46l-0.34,3-1.72.14v2.18h1.58v4.96C2423.09,1549.6,2424.11,1551.28,2426.77,1551.28Zm5.02-8.76a4.914,4.914,0,0,0,3.02-4.62c0-1.72-.68-2.72-1.94-2.72a1.555,1.555,0,0,0-1.6,1.68,1.518,1.518,0,0,0,1.6,1.54,0.68,0.68,0,0,0,.2-0.02,3.139,3.139,0,0,1-1.94,2.86Zm8.28,8.76c2.92,0,4.46-1.58,4.46-3.54,0-2.08-1.64-2.82-3.12-3.38-1.18-.44-2.28-0.74-2.28-1.56,0-.64.48-1.08,1.48-1.08a4.312,4.312,0,0,1,2.42.96l1.32-1.78a6.269,6.269,0,0,0-3.82-1.38c-2.52,0-4.16,1.42-4.16,3.44,0,1.86,1.64,2.72,3.06,3.26,1.18,0.46,2.34.84,2.34,1.68,0,0.7-.5,1.18-1.62,1.18a4.862,4.862,0,0,1-3-1.22l-1.34,1.84A7.057,7.057,0,0,0,2440.07,1551.28Zm12.6-.28h2.86v-2.8l1.62-1.84,2.72,4.64h3.18l-4.24-6.62,3.88-4.58h-3.2l-3.88,4.84h-0.08v-9.6h-2.86V1551Zm16.75,0.28a7.065,7.065,0,0,0,3.92-1.24l-1-1.8a4.616,4.616,0,0,1-2.52.78,2.943,2.943,0,0,1-3.1-2.8h6.9a5.464,5.464,0,0,0,.14-1.34c0-3.1-1.6-5.36-4.68-5.36-2.68,0-5.22,2.26-5.22,5.9C2463.86,1549.1,2466.3,1551.28,2469.42,1551.28Zm-2.74-7a2.525,2.525,0,0,1,2.44-2.48c1.44,0,2.12.96,2.12,2.48h-4.56Zm15.15,7a7.065,7.065,0,0,0,3.92-1.24l-1-1.8a4.616,4.616,0,0,1-2.52.78,2.943,2.943,0,0,1-3.1-2.8h6.9a5.464,5.464,0,0,0,.14-1.34c0-3.1-1.6-5.36-4.68-5.36-2.68,0-5.23,2.26-5.23,5.9C2476.26,1549.1,2478.71,1551.28,2481.83,1551.28Zm-2.74-7a2.525,2.525,0,0,1,2.44-2.48c1.44,0,2.12.96,2.12,2.48h-4.56Zm10.25,11.02h2.92v-3.4l-0.08-1.84a4.163,4.163,0,0,0,2.78,1.22c2.46,0,4.76-2.22,4.76-6.06,0-3.44-1.64-5.7-4.4-5.7a5.317,5.317,0,0,0-3.3,1.44h-0.08l-0.2-1.16h-2.4v15.5Zm4.96-6.44a3.134,3.134,0,0,1-2.04-.84v-4.92a3.158,3.158,0,0,1,2.22-1.16c1.54,0,2.22,1.18,2.22,3.32C2496.7,1547.7,2495.66,1548.86,2494.3,1548.86Zm18.6,2.42a5.556,5.556,0,0,0,3.66-1.36l-1.16-1.94a3.478,3.478,0,0,1-2.18.9c-1.62,0-2.78-1.36-2.78-3.46,0-2.12,1.16-3.5,2.86-3.5a2.557,2.557,0,0,1,1.72.74l1.4-1.9a4.9,4.9,0,0,0-3.26-1.24,5.592,5.592,0,0,0-5.72,5.9C2507.44,1549.12,2509.8,1551.28,2512.9,1551.28Zm6.44-.28h2.93v-7.7a3.218,3.218,0,0,1,2.34-1.26c1.1,0,1.58.62,1.58,2.34V1551h2.94v-6.98c0-2.82-1.04-4.5-3.46-4.5a5.1,5.1,0,0,0-3.52,1.64l0.12-2.1v-4.02h-2.93V1551Zm16.03,0.28a5.266,5.266,0,0,0,3.38-1.48h0.06l0.22,1.2h2.4v-6.54c0-3.24-1.46-4.94-4.3-4.94a9.012,9.012,0,0,0-4.69,1.48l1.06,1.94a6.4,6.4,0,0,1,3.09-1.06,1.745,1.745,0,0,1,1.9,1.94c-4.5.48-6.45,1.74-6.45,4.14A3.184,3.184,0,0,0,2535.37,1551.28Zm0.96-2.3a1.255,1.255,0,0,1-1.48-1.26c0-1,.92-1.74,3.64-2.1v2.26A2.969,2.969,0,0,1,2536.33,1548.98Zm11.31,2.3a4,4,0,0,0,1.52-.26l-0.36-2.18a1.657,1.657,0,0,1-.4.04c-0.28,0-.6-0.22-0.6-0.88v-12.96h-2.92v12.82C2544.88,1549.94,2545.6,1551.28,2547.64,1551.28Zm6.25,0a4,4,0,0,0,1.52-.26l-0.36-2.18a1.657,1.657,0,0,1-.4.04c-0.28,0-.6-0.22-0.6-0.88v-12.96h-2.93v12.82C2551.12,1549.94,2551.84,1551.28,2553.89,1551.28Zm8.3,0a7.065,7.065,0,0,0,3.92-1.24l-1-1.8a4.616,4.616,0,0,1-2.52.78,2.943,2.943,0,0,1-3.1-2.8h6.9a5.464,5.464,0,0,0,.14-1.34c0-3.1-1.6-5.36-4.68-5.36-2.68,0-5.22,2.26-5.22,5.9C2556.63,1549.1,2559.07,1551.28,2562.19,1551.28Zm-2.74-7a2.525,2.525,0,0,1,2.44-2.48c1.44,0,2.12.96,2.12,2.48h-4.56Zm10.26,6.72h2.92v-7.7a3.218,3.218,0,0,1,2.34-1.26c1.1,0,1.58.62,1.58,2.34V1551h2.94v-6.98c0-2.82-1.04-4.5-3.46-4.5a5.162,5.162,0,0,0-3.64,1.76h-0.08l-0.2-1.48h-2.4V1551Zm17.2,4.86c3.74,0,6.08-1.72,6.08-3.98,0-1.96-1.46-2.8-4.16-2.8h-1.9c-1.32,0-1.76-.32-1.76-0.92a1.116,1.116,0,0,1,.48-0.96,4.77,4.77,0,0,0,1.44.26c2.4,0,4.32-1.28,4.32-3.8a2.818,2.818,0,0,0-.52-1.7h1.92v-2.16h-4.04a5.269,5.269,0,0,0-1.68-.28c-2.38,0-4.53,1.42-4.53,4.06a3.68,3.68,0,0,0,1.49,2.92v0.08a2.762,2.762,0,0,0-1.25,2.1,2.123,2.123,0,0,0,1.02,1.88v0.1a2.719,2.719,0,0,0-1.6,2.32C2582.22,1554.96,2584.27,1555.86,2586.91,1555.86Zm0.18-10.22a2.086,2.086,0,0,1,0-4.12A2.089,2.089,0,0,1,2587.09,1545.64Zm0.26,8.36c-1.64,0-2.68-.54-2.68-1.48a1.68,1.68,0,0,1,.74-1.3,6.321,6.321,0,0,0,1.56.16h1.36c1.2,0,1.86.2,1.86,1C2590.19,1553.26,2589.03,1554,2587.35,1554Zm7.86-3h2.92v-11.2h-2.92V1551Zm1.48-13a1.628,1.628,0,0,0,1.74-1.6,1.757,1.757,0,0,0-3.5,0A1.634,1.634,0,0,0,2596.69,1538Zm4.76,13h2.92v-7.7a3.218,3.218,0,0,1,2.34-1.26c1.1,0,1.58.62,1.58,2.34V1551h2.94v-6.98c0-2.82-1.04-4.5-3.46-4.5a5.162,5.162,0,0,0-3.64,1.76h-0.08l-0.2-1.48h-2.4V1551Zm17.2,4.86c3.74,0,6.08-1.72,6.08-3.98,0-1.96-1.46-2.8-4.16-2.8h-1.9c-1.32,0-1.76-.32-1.76-0.92a1.116,1.116,0,0,1,.48-0.96,4.77,4.77,0,0,0,1.44.26c2.4,0,4.32-1.28,4.32-3.8a2.818,2.818,0,0,0-.52-1.7h1.92v-2.16h-4.04a5.269,5.269,0,0,0-1.68-.28c-2.38,0-4.52,1.42-4.52,4.06a3.7,3.7,0,0,0,1.48,2.92v0.08a2.779,2.779,0,0,0-1.24,2.1,2.123,2.123,0,0,0,1.02,1.88v0.1a2.719,2.719,0,0,0-1.6,2.32C2613.97,1554.96,2616.01,1555.86,2618.65,1555.86Zm0.18-10.22a2.086,2.086,0,0,1,0-4.12A2.089,2.089,0,0,1,2618.83,1545.64Zm0.26,8.36c-1.64,0-2.68-.54-2.68-1.48a1.68,1.68,0,0,1,.74-1.3,6.321,6.321,0,0,0,1.56.16h1.36c1.2,0,1.86.2,1.86,1C2621.93,1553.26,2620.77,1554,2619.09,1554Zm17.52-2.72a7.238,7.238,0,0,0,2.36-.42l-0.48-2.14a3.272,3.272,0,0,1-1.1.24c-1,0-1.52-.6-1.52-1.88v-4.96h2.76v-2.32h-2.76v-3h-2.46l-0.34,3-1.72.14v2.18h1.58v4.96C2632.93,1549.6,2633.95,1551.28,2636.61,1551.28Zm4.32-.28h2.92v-7.7a3.218,3.218,0,0,1,2.34-1.26c1.1,0,1.58.62,1.58,2.34V1551h2.94v-6.98c0-2.82-1.04-4.5-3.46-4.5a5.1,5.1,0,0,0-3.52,1.64l0.12-2.1v-4.02h-2.92V1551Zm18.23,0.28a7.065,7.065,0,0,0,3.92-1.24l-1-1.8a4.616,4.616,0,0,1-2.52.78,2.943,2.943,0,0,1-3.1-2.8h6.9a5.464,5.464,0,0,0,.14-1.34c0-3.1-1.6-5.36-4.68-5.36-2.68,0-5.22,2.26-5.22,5.9C2653.6,1549.1,2656.04,1551.28,2659.16,1551.28Zm-2.74-7a2.525,2.525,0,0,1,2.44-2.48c1.44,0,2.12.96,2.12,2.48h-4.56Zm17.54,6.72h3.36l1.14-4.88c0.24-1.04.4-2.08,0.62-3.26h0.1c0.22,1.18.4,2.2,0.64,3.26L2681,1551h3.46l2.76-11.2h-2.72l-1.22,5.54c-0.22,1.08-.36,2.16-0.56,3.26h-0.1c-0.24-1.1-.44-2.18-0.7-3.26l-1.4-5.54h-2.62l-1.34,5.54c-0.28,1.06-.48,2.16-0.7,3.26h-0.08c-0.2-1.1-.34-2.18-0.56-3.26l-1.22-5.54h-2.94Zm19.93,0.28c2.8,0,5.38-2.16,5.38-5.86,0-3.74-2.58-5.9-5.38-5.9s-5.38,2.16-5.38,5.9C2688.51,1549.12,2691.09,1551.28,2693.89,1551.28Zm0-2.4c-1.52,0-2.38-1.36-2.38-3.46,0-2.12.86-3.5,2.38-3.5s2.38,1.38,2.38,3.5C2696.27,1547.52,2695.41,1548.88,2693.89,1548.88Zm8.65,2.12h2.92v-6.68c0.64-1.62,1.7-2.2,2.58-2.2a3.53,3.53,0,0,1,1.16.18l0.52-2.54a3.168,3.168,0,0,0-1.32-.24,3.88,3.88,0,0,0-3.18,2.26h-0.08l-0.2-1.98h-2.4V1551Zm12.21,0.28a4,4,0,0,0,1.52-.26l-0.36-2.18a1.657,1.657,0,0,1-.4.04c-0.28,0-.6-0.22-0.6-0.88v-12.96h-2.92v12.82C2711.99,1549.94,2712.71,1551.28,2714.75,1551.28Zm7.42,0a4.645,4.645,0,0,0,3.1-1.44h0.06l0.24,1.16h2.38v-15.96h-2.94v3.94l0.12,1.76a3.855,3.855,0,0,0-2.84-1.22c-2.42,0-4.7,2.24-4.7,5.9S2719.39,1551.28,2722.17,1551.28Zm0.76-2.42c-1.48,0-2.32-1.16-2.32-3.48,0-2.24,1.06-3.44,2.32-3.44a2.976,2.976,0,0,1,2.08.84v4.92A2.491,2.491,0,0,1,2722.93,1548.86Zm15.96,2.14h3.36l1.14-4.88c0.24-1.04.4-2.08,0.62-3.26h0.1c0.22,1.18.4,2.2,0.64,3.26l1.18,4.88h3.46l2.76-11.2h-2.72l-1.22,5.54c-0.22,1.08-.36,2.16-0.56,3.26h-0.1c-0.24-1.1-.44-2.18-0.7-3.26l-1.4-5.54h-2.62l-1.34,5.54c-0.28,1.06-.48,2.16-0.7,3.26h-0.08c-0.2-1.1-.34-2.18-0.56-3.26l-1.22-5.54h-2.94Zm15.35,0h2.92v-7.7a3.218,3.218,0,0,1,2.34-1.26c1.1,0,1.58.62,1.58,2.34V1551h2.94v-6.98c0-2.82-1.04-4.5-3.46-4.5a5.1,5.1,0,0,0-3.52,1.64l0.12-2.1v-4.02h-2.92V1551Zm18.23,0.28a7.065,7.065,0,0,0,3.92-1.24l-1-1.8a4.616,4.616,0,0,1-2.52.78,2.943,2.943,0,0,1-3.1-2.8h6.9a5.464,5.464,0,0,0,.14-1.34c0-3.1-1.6-5.36-4.68-5.36-2.68,0-5.22,2.26-5.22,5.9C2766.91,1549.1,2769.35,1551.28,2772.47,1551.28Zm-2.74-7a2.525,2.525,0,0,1,2.44-2.48c1.44,0,2.12.96,2.12,2.48h-4.56Zm10.26,6.72h2.92v-6.68c0.64-1.62,1.7-2.2,2.58-2.2a3.53,3.53,0,0,1,1.16.18l0.52-2.54a3.168,3.168,0,0,0-1.32-.24,3.88,3.88,0,0,0-3.18,2.26h-0.08l-0.2-1.98h-2.4V1551Zm14.11,0.28a7.065,7.065,0,0,0,3.92-1.24l-1-1.8a4.616,4.616,0,0,1-2.52.78,2.943,2.943,0,0,1-3.1-2.8h6.9a5.464,5.464,0,0,0,.14-1.34c0-3.1-1.6-5.36-4.68-5.36-2.68,0-5.22,2.26-5.22,5.9C2788.54,1549.1,2790.98,1551.28,2794.1,1551.28Zm-2.74-7a2.525,2.525,0,0,1,2.44-2.48c1.44,0,2.12.96,2.12,2.48h-4.56Zm-393.3,35.02h2.92v-3.4l-0.08-1.84a4.163,4.163,0,0,0,2.78,1.22c2.46,0,4.76-2.22,4.76-6.06,0-3.44-1.64-5.7-4.4-5.7a5.317,5.317,0,0,0-3.3,1.44h-0.08l-0.2-1.16h-2.4v15.5Zm4.96-6.44a3.134,3.134,0,0,1-2.04-.84v-4.92a3.158,3.158,0,0,1,2.22-1.16c1.54,0,2.22,1.18,2.22,3.32C2405.42,1571.7,2404.38,1572.86,2403.02,1572.86Zm13.1,2.42c2.8,0,5.38-2.16,5.38-5.86,0-3.74-2.58-5.9-5.38-5.9s-5.38,2.16-5.38,5.9C2410.74,1573.12,2413.32,1575.28,2416.12,1575.28Zm0-2.4c-1.52,0-2.38-1.36-2.38-3.46,0-2.12.86-3.5,2.38-3.5s2.38,1.38,2.38,3.5C2418.5,1571.52,2417.64,1572.88,2416.12,1572.88Zm11.77,2.4c2.92,0,4.46-1.58,4.46-3.54,0-2.08-1.64-2.82-3.12-3.38-1.18-.44-2.28-0.74-2.28-1.56,0-.64.48-1.08,1.48-1.08a4.312,4.312,0,0,1,2.42.96l1.32-1.78a6.269,6.269,0,0,0-3.82-1.38c-2.52,0-4.17,1.42-4.17,3.44,0,1.86,1.65,2.72,3.07,3.26,1.18,0.46,2.34.84,2.34,1.68,0,0.7-.5,1.18-1.62,1.18a4.91,4.91,0,0,1-3.01-1.22l-1.34,1.84A7.086,7.086,0,0,0,2427.89,1575.28Zm10.42,0c2.92,0,4.46-1.58,4.46-3.54,0-2.08-1.64-2.82-3.12-3.38-1.18-.44-2.28-0.74-2.28-1.56,0-.64.48-1.08,1.48-1.08a4.312,4.312,0,0,1,2.42.96l1.32-1.78a6.269,6.269,0,0,0-3.82-1.38c-2.52,0-4.16,1.42-4.16,3.44,0,1.86,1.64,2.72,3.06,3.26,1.18,0.46,2.34.84,2.34,1.68,0,0.7-.5,1.18-1.62,1.18a4.862,4.862,0,0,1-3-1.22l-1.34,1.84A7.057,7.057,0,0,0,2438.31,1575.28Zm7.18-.28h2.92v-11.2h-2.92V1575Zm1.48-13a1.628,1.628,0,0,0,1.74-1.6,1.757,1.757,0,0,0-3.5,0A1.634,1.634,0,0,0,2446.97,1562Zm10.39,13.28c2.46,0,4.76-2.22,4.76-6.08,0-3.42-1.66-5.68-4.42-5.68a4.778,4.778,0,0,0-3.1,1.34l0.06-1.8v-4.02h-2.93V1575h2.31l0.26-1.18h0.06A4.358,4.358,0,0,0,2457.36,1575.28Zm-0.66-2.42a3.1,3.1,0,0,1-2.04-.84v-4.92a3.158,3.158,0,0,1,2.22-1.16c1.54,0,2.22,1.18,2.22,3.32C2459.1,1571.7,2458.06,1572.86,2456.7,1572.86Zm8.33,2.14h2.93v-11.2h-2.93V1575Zm1.49-13a1.628,1.628,0,0,0,1.74-1.6,1.763,1.763,0,0,0-3.51,0A1.637,1.637,0,0,0,2466.52,1562Zm7.5,13.28a4,4,0,0,0,1.52-.26l-0.36-2.18a1.657,1.657,0,0,1-.4.04c-0.28,0-.6-0.22-0.6-0.88v-12.96h-2.93v12.82C2471.25,1573.94,2471.97,1575.28,2474.02,1575.28Zm3.57-.28h2.92v-11.2h-2.92V1575Zm1.48-13a1.628,1.628,0,0,0,1.74-1.6,1.757,1.757,0,0,0-3.5,0A1.634,1.634,0,0,0,2479.07,1562Zm8.92,13.28a7.238,7.238,0,0,0,2.36-.42l-0.48-2.14a3.272,3.272,0,0,1-1.1.24c-1,0-1.52-.6-1.52-1.88v-4.96h2.76v-2.32h-2.76v-3h-2.47l-0.34,3-1.72.14v2.18h1.58v4.96C2484.3,1573.6,2485.33,1575.28,2487.99,1575.28Zm5.6,4.22c2.5,0,3.7-1.52,4.68-4.16l3.98-11.54h-2.82l-1.54,5.2c-0.26,1.04-.54,2.12-0.8,3.16h-0.1c-0.32-1.08-.6-2.16-0.94-3.16l-1.78-5.2h-2.96l4.36,11-0.2.66a2.144,2.144,0,0,1-2.1,1.7,3.012,3.012,0,0,1-.78-0.14l-0.54,2.26A4.742,4.742,0,0,0,2493.59,1579.5Zm15.82-4.5h2.92v-11.2h-2.92V1575Zm1.48-13a1.628,1.628,0,0,0,1.74-1.6,1.757,1.757,0,0,0-3.5,0A1.634,1.634,0,0,0,2510.89,1562Zm8.01,13.28c2.92,0,4.46-1.58,4.46-3.54,0-2.08-1.64-2.82-3.12-3.38-1.18-.44-2.28-0.74-2.28-1.56,0-.64.48-1.08,1.48-1.08a4.312,4.312,0,0,1,2.42.96l1.32-1.78a6.269,6.269,0,0,0-3.82-1.38c-2.52,0-4.16,1.42-4.16,3.44,0,1.86,1.64,2.72,3.06,3.26,1.18,0.46,2.34.84,2.34,1.68,0,0.7-.5,1.18-1.62,1.18a4.862,4.862,0,0,1-3-1.22l-1.34,1.84A7.057,7.057,0,0,0,2518.9,1575.28Zm15.92,0a4.5,4.5,0,0,0,3.58-1.88h0.08l0.22,1.6h2.4v-11.2h-2.94v7.56a2.7,2.7,0,0,1-2.28,1.4c-1.08,0-1.56-.6-1.56-2.34v-6.62h-2.94v7C2531.38,1573.6,2532.42,1575.28,2534.82,1575.28Zm9.95-.28h2.92v-7.7a3.218,3.218,0,0,1,2.34-1.26c1.1,0,1.58.62,1.58,2.34V1575h2.94v-6.98c0-2.82-1.04-4.5-3.46-4.5a5.162,5.162,0,0,0-3.64,1.76h-0.08l-0.2-1.48h-2.4V1575Zm16.05,0.28a4,4,0,0,0,1.52-.26l-0.36-2.18a1.657,1.657,0,0,1-.4.04c-0.28,0-.6-0.22-0.6-0.88v-12.96h-2.93v12.82C2558.05,1573.94,2558.77,1575.28,2560.82,1575.28Zm3.57-.28h2.92v-11.2h-2.92V1575Zm1.48-13a1.628,1.628,0,0,0,1.74-1.6,1.757,1.757,0,0,0-3.5,0A1.634,1.634,0,0,0,2565.87,1562Zm4.77,13h2.92v-7.7a3.268,3.268,0,0,1,2.16-1.26c1.06,0,1.56.62,1.56,2.34V1575h2.94v-7.7a3.268,3.268,0,0,1,2.16-1.26c1.06,0,1.56.62,1.56,2.34V1575h2.94v-6.98c0-2.82-1.1-4.5-3.48-4.5a4.967,4.967,0,0,0-3.56,1.96,3.048,3.048,0,0,0-3.08-1.96,4.716,4.716,0,0,0-3.44,1.78h-0.08l-0.2-1.5h-2.4V1575Zm19.29,0h2.92v-11.2h-2.92V1575Zm1.48-13a1.628,1.628,0,0,0,1.74-1.6,1.757,1.757,0,0,0-3.5,0A1.634,1.634,0,0,0,2591.41,1562Zm8.92,13.28a7.238,7.238,0,0,0,2.36-.42l-0.48-2.14a3.272,3.272,0,0,1-1.1.24c-1,0-1.52-.6-1.52-1.88v-4.96h2.76v-2.32h-2.76v-3h-2.47l-0.34,3-1.72.14v2.18h1.58v4.96C2596.64,1573.6,2597.67,1575.28,2600.33,1575.28Zm9,0a7.065,7.065,0,0,0,3.92-1.24l-1-1.8a4.616,4.616,0,0,1-2.52.78,2.943,2.943,0,0,1-3.1-2.8h6.9a5.464,5.464,0,0,0,.14-1.34c0-3.1-1.6-5.36-4.68-5.36-2.68,0-5.22,2.26-5.22,5.9C2603.77,1573.1,2606.21,1575.28,2609.33,1575.28Zm-2.74-7a2.525,2.525,0,0,1,2.44-2.48c1.44,0,2.12.96,2.12,2.48h-4.56Zm14.25,7a4.645,4.645,0,0,0,3.1-1.44H2624l0.24,1.16h2.38v-15.96h-2.94v3.94l0.12,1.76a3.855,3.855,0,0,0-2.84-1.22c-2.42,0-4.7,2.24-4.7,5.9S2618.06,1575.28,2620.84,1575.28Zm0.76-2.42c-1.48,0-2.32-1.16-2.32-3.48,0-2.24,1.06-3.44,2.32-3.44a2.976,2.976,0,0,1,2.08.84v4.92A2.491,2.491,0,0,1,2621.6,1572.86Zm16.86,2.42a5.266,5.266,0,0,0,3.38-1.48h0.06l0.22,1.2h2.4v-6.54c0-3.24-1.46-4.94-4.3-4.94a8.947,8.947,0,0,0-4.68,1.48l1.06,1.94a6.328,6.328,0,0,1,3.08-1.06,1.745,1.745,0,0,1,1.9,1.94c-4.5.48-6.44,1.74-6.44,4.14A3.181,3.181,0,0,0,2638.46,1575.28Zm0.96-2.3a1.255,1.255,0,0,1-1.48-1.26c0-1,.92-1.74,3.64-2.1v2.26A2.969,2.969,0,0,1,2639.42,1572.98Zm8.59,2.02h2.92v-7.7a3.218,3.218,0,0,1,2.34-1.26c1.1,0,1.58.62,1.58,2.34V1575h2.94v-6.98c0-2.82-1.04-4.5-3.46-4.5a5.162,5.162,0,0,0-3.64,1.76h-0.08l-0.2-1.48h-2.4V1575Zm17.31,0.28a4.645,4.645,0,0,0,3.1-1.44h0.06l0.24,1.16h2.38v-15.96h-2.94v3.94l0.12,1.76a3.855,3.855,0,0,0-2.84-1.22c-2.42,0-4.71,2.24-4.71,5.9S2662.54,1575.28,2665.32,1575.28Zm0.76-2.42c-1.48,0-2.32-1.16-2.32-3.48,0-2.24,1.06-3.44,2.32-3.44a2.976,2.976,0,0,1,2.08.84v4.92A2.491,2.491,0,0,1,2666.08,1572.86Zm17.42,2.42a4.5,4.5,0,0,0,3.58-1.88h0.08l0.22,1.6h2.4v-11.2h-2.94v7.56a2.7,2.7,0,0,1-2.28,1.4c-1.08,0-1.56-.6-1.56-2.34v-6.62h-2.95v7C2680.05,1573.6,2681.1,1575.28,2683.5,1575.28Zm9.94-.28h2.93v-7.7a3.218,3.218,0,0,1,2.34-1.26c1.1,0,1.58.62,1.58,2.34V1575h2.94v-6.98c0-2.82-1.04-4.5-3.46-4.5a5.162,5.162,0,0,0-3.64,1.76h-0.08l-0.2-1.48h-2.41V1575Zm13.32,4.3h2.92v-3.4l-0.08-1.84a4.163,4.163,0,0,0,2.78,1.22c2.46,0,4.76-2.22,4.76-6.06,0-3.44-1.64-5.7-4.4-5.7a5.317,5.317,0,0,0-3.3,1.44h-0.08l-0.2-1.16h-2.4v15.5Zm4.96-6.44a3.134,3.134,0,0,1-2.04-.84v-4.92a3.158,3.158,0,0,1,2.22-1.16c1.54,0,2.22,1.18,2.22,3.32C2714.12,1571.7,2713.08,1572.86,2711.72,1572.86Zm8.39,2.14h2.92v-6.68c0.64-1.62,1.7-2.2,2.58-2.2a3.53,3.53,0,0,1,1.16.18l0.52-2.54a3.168,3.168,0,0,0-1.32-.24,3.88,3.88,0,0,0-3.18,2.26h-0.08l-0.2-1.98h-2.4V1575Zm14.11,0.28a7.065,7.065,0,0,0,3.92-1.24l-1-1.8a4.616,4.616,0,0,1-2.52.78,2.943,2.943,0,0,1-3.1-2.8h6.9a5.464,5.464,0,0,0,.14-1.34c0-3.1-1.6-5.36-4.68-5.36-2.68,0-5.22,2.26-5.22,5.9C2728.66,1573.1,2731.1,1575.28,2734.22,1575.28Zm-2.74-7a2.525,2.525,0,0,1,2.44-2.48c1.44,0,2.12.96,2.12,2.48h-4.56Zm14.25,7a4.645,4.645,0,0,0,3.1-1.44h0.06l0.24,1.16h2.38v-15.96h-2.94v3.94l0.12,1.76a3.855,3.855,0,0,0-2.84-1.22c-2.42,0-4.71,2.24-4.71,5.9S2742.95,1575.28,2745.73,1575.28Zm0.76-2.42c-1.48,0-2.32-1.16-2.32-3.48,0-2.24,1.06-3.44,2.32-3.44a2.976,2.976,0,0,1,2.08.84v4.92A2.491,2.491,0,0,1,2746.49,1572.86Zm8.58,2.14h2.92v-11.2h-2.92V1575Zm1.48-13a1.628,1.628,0,0,0,1.74-1.6,1.757,1.757,0,0,0-3.5,0A1.634,1.634,0,0,0,2756.55,1562Zm9.54,13.28a5.556,5.556,0,0,0,3.66-1.36l-1.16-1.94a3.478,3.478,0,0,1-2.18.9c-1.62,0-2.78-1.36-2.78-3.46,0-2.12,1.16-3.5,2.86-3.5a2.557,2.557,0,0,1,1.72.74l1.4-1.9a4.9,4.9,0,0,0-3.26-1.24,5.592,5.592,0,0,0-5.72,5.9C2760.63,1573.12,2762.99,1575.28,2766.09,1575.28Zm11.01,0a7.238,7.238,0,0,0,2.36-.42l-0.48-2.14a3.272,3.272,0,0,1-1.1.24c-1,0-1.52-.6-1.52-1.88v-4.96h2.76v-2.32h-2.76v-3h-2.46l-0.34,3-1.72.14v2.18h1.58v4.96C2773.42,1573.6,2774.44,1575.28,2777.1,1575.28Zm6.95,0a5.266,5.266,0,0,0,3.38-1.48h0.06l0.22,1.2h2.4v-6.54c0-3.24-1.46-4.94-4.3-4.94a9.012,9.012,0,0,0-4.69,1.48l1.06,1.94a6.4,6.4,0,0,1,3.09-1.06,1.745,1.745,0,0,1,1.9,1.94c-4.5.48-6.45,1.74-6.45,4.14A3.184,3.184,0,0,0,2784.05,1575.28Zm0.96-2.3a1.255,1.255,0,0,1-1.48-1.26c0-1,.92-1.74,3.64-2.1v2.26A2.969,2.969,0,0,1,2785.01,1572.98Zm14.21,2.3c2.46,0,4.76-2.22,4.76-6.08,0-3.42-1.66-5.68-4.42-5.68a4.778,4.778,0,0,0-3.1,1.34l0.06-1.8v-4.02h-2.92V1575h2.3l0.26-1.18h0.06A4.358,4.358,0,0,0,2799.22,1575.28Zm-0.66-2.42a3.1,3.1,0,0,1-2.04-.84v-4.92a3.158,3.158,0,0,1,2.22-1.16c1.54,0,2.22,1.18,2.22,3.32C2800.96,1571.7,2799.92,1572.86,2798.56,1572.86Zm11.12,2.42a4,4,0,0,0,1.52-.26l-0.36-2.18a1.657,1.657,0,0,1-.4.04c-0.28,0-.6-0.22-0.6-0.88v-12.96h-2.92v12.82C2806.92,1573.94,2807.64,1575.28,2809.68,1575.28Zm8.3,0a7.065,7.065,0,0,0,3.92-1.24l-1-1.8a4.616,4.616,0,0,1-2.52.78,2.943,2.943,0,0,1-3.1-2.8h6.9a5.464,5.464,0,0,0,.14-1.34c0-3.1-1.6-5.36-4.68-5.36-2.68,0-5.22,2.26-5.22,5.9C2812.42,1573.1,2814.86,1575.28,2817.98,1575.28Zm-2.74-7a2.525,2.525,0,0,1,2.44-2.48c1.44,0,2.12.96,2.12,2.48h-4.56Zm11.77,7a1.923,1.923,0,1,0-1.82-1.92A1.842,1.842,0,0,0,2827.01,1575.28Z" transform="translate(-2396.38 -1091.69)"/>
</svg>
